<mxfile host="app.diagrams.net" agent="Mozilla/5.0 (Windows NT 10.0; Win64; x64) AppleWebKit/537.36 (KHTML, like Gecko) Chrome/129.0.0.0 Safari/537.36" version="24.7.17">
  <diagram name="Page-1" id="pJ08Jq4T_bKkRXrq2wHJ">
    <mxGraphModel dx="5878" dy="1131" grid="0" gridSize="10" guides="1" tooltips="1" connect="1" arrows="1" fold="1" page="0" pageScale="1" pageWidth="827" pageHeight="1169" math="0" shadow="0">
      <root>
        <mxCell id="0" />
        <mxCell id="1" parent="0" />
        <mxCell id="czj0lWYuDd8mKOrDeeGV-195" value="&lt;div style=&quot;font-size: 11px;&quot;&gt;&lt;font style=&quot;font-size: 11px;&quot;&gt;&lt;b style=&quot;&quot;&gt;person_id&lt;/b&gt;&lt;br&gt;&lt;/font&gt;&lt;/div&gt;&lt;div style=&quot;font-size: 11px;&quot;&gt;&lt;font style=&quot;font-size: 11px;&quot;&gt;&lt;b style=&quot;&quot;&gt;follower_id&lt;/b&gt;&lt;/font&gt;&lt;/div&gt;&lt;div style=&quot;font-size: 11px;&quot;&gt;&lt;font style=&quot;font-size: 11px;&quot;&gt;created_at&lt;/font&gt;&lt;/div&gt;" style="rounded=0;whiteSpace=wrap;html=1;align=left;spacingBottom=0;spacingRight=0;" parent="1" vertex="1">
          <mxGeometry x="-3436" y="420" width="103" height="44" as="geometry" />
        </mxCell>
        <mxCell id="czj0lWYuDd8mKOrDeeGV-186" value="" style="group" parent="1" vertex="1" connectable="0">
          <mxGeometry x="-3624" y="174.19" width="113" height="54" as="geometry" />
        </mxCell>
        <mxCell id="czj0lWYuDd8mKOrDeeGV-164" value="&lt;div style=&quot;font-size: 11px;&quot;&gt;&lt;b&gt;&lt;font style=&quot;font-size: 11px;&quot;&gt;district_name&lt;/font&gt;&lt;/b&gt;&lt;/div&gt;&lt;div style=&quot;font-size: 11px;&quot;&gt;&lt;b&gt;&lt;font style=&quot;font-size: 11px;&quot;&gt;country_id&lt;/font&gt;&lt;/b&gt;&lt;/div&gt;" style="rounded=0;whiteSpace=wrap;html=1;align=left;spacingBottom=0;spacingRight=0;" parent="czj0lWYuDd8mKOrDeeGV-186" vertex="1">
          <mxGeometry y="22" width="113" height="32" as="geometry" />
        </mxCell>
        <mxCell id="czj0lWYuDd8mKOrDeeGV-165" value="&lt;span style=&quot;font-size: 11px;&quot;&gt;&lt;b&gt;District&lt;/b&gt;&lt;/span&gt;" style="rounded=0;whiteSpace=wrap;html=1;fillColor=#b1ddf0;strokeColor=#000000;" parent="czj0lWYuDd8mKOrDeeGV-186" vertex="1">
          <mxGeometry width="113" height="22" as="geometry" />
        </mxCell>
        <mxCell id="czj0lWYuDd8mKOrDeeGV-166" value="" style="sketch=0;aspect=fixed;pointerEvents=1;shadow=0;dashed=0;html=1;strokeColor=default;labelPosition=center;verticalLabelPosition=bottom;verticalAlign=top;align=center;fillColor=#CC5050;shape=mxgraph.mscae.enterprise.key_permissions;strokeWidth=0.3;connectable=1;allowArrows=0;" parent="czj0lWYuDd8mKOrDeeGV-186" vertex="1">
          <mxGeometry x="93" y="25" width="6.24" height="12" as="geometry" />
        </mxCell>
        <mxCell id="czj0lWYuDd8mKOrDeeGV-167" value="" style="sketch=0;aspect=fixed;pointerEvents=1;shadow=0;dashed=0;html=1;strokeColor=default;labelPosition=center;verticalLabelPosition=bottom;verticalAlign=top;align=center;fillColor=#CC5050;shape=mxgraph.mscae.enterprise.key_permissions;strokeWidth=0.3;connectable=1;allowArrows=0;" parent="czj0lWYuDd8mKOrDeeGV-186" vertex="1">
          <mxGeometry x="93" y="40" width="6.24" height="12" as="geometry" />
        </mxCell>
        <mxCell id="czj0lWYuDd8mKOrDeeGV-168" value="" style="sketch=0;aspect=fixed;pointerEvents=1;shadow=0;dashed=0;html=1;strokeColor=default;labelPosition=center;verticalLabelPosition=bottom;verticalAlign=top;align=center;fillColor=#FFD966;shape=mxgraph.mscae.enterprise.key_permissions;strokeWidth=0.3;connectable=1;allowArrows=1;" parent="czj0lWYuDd8mKOrDeeGV-186" vertex="1">
          <mxGeometry x="103" y="40" width="6.24" height="12" as="geometry" />
        </mxCell>
        <mxCell id="czj0lWYuDd8mKOrDeeGV-185" value="" style="group" parent="1" vertex="1" connectable="0">
          <mxGeometry x="-3614" y="288" width="103" height="54" as="geometry" />
        </mxCell>
        <mxCell id="czj0lWYuDd8mKOrDeeGV-156" value="&lt;div style=&quot;font-size: 11px;&quot;&gt;&lt;font style=&quot;font-size: 11px;&quot;&gt;&lt;b style=&quot;&quot;&gt;country_id&lt;/b&gt;&lt;br&gt;&lt;/font&gt;&lt;/div&gt;&lt;div style=&quot;font-size: 11px;&quot;&gt;&lt;font style=&quot;font-size: 11px;&quot;&gt;country_name&lt;/font&gt;&lt;/div&gt;" style="rounded=0;whiteSpace=wrap;html=1;align=left;spacingBottom=0;spacingRight=0;" parent="czj0lWYuDd8mKOrDeeGV-185" vertex="1">
          <mxGeometry y="22" width="103" height="32" as="geometry" />
        </mxCell>
        <mxCell id="czj0lWYuDd8mKOrDeeGV-158" value="&lt;b&gt;&lt;font style=&quot;font-size: 11px;&quot;&gt;Country&lt;/font&gt;&lt;/b&gt;" style="rounded=0;whiteSpace=wrap;html=1;fillColor=#b1ddf0;strokeColor=#000000;" parent="czj0lWYuDd8mKOrDeeGV-185" vertex="1">
          <mxGeometry width="103" height="22" as="geometry" />
        </mxCell>
        <mxCell id="czj0lWYuDd8mKOrDeeGV-159" value="" style="sketch=0;aspect=fixed;pointerEvents=1;shadow=0;dashed=0;html=1;strokeColor=default;labelPosition=center;verticalLabelPosition=bottom;verticalAlign=top;align=center;fillColor=#CC5050;shape=mxgraph.mscae.enterprise.key_permissions;strokeWidth=0.3;connectable=1;allowArrows=0;" parent="czj0lWYuDd8mKOrDeeGV-185" vertex="1">
          <mxGeometry x="93" y="25" width="6.24" height="12" as="geometry" />
        </mxCell>
        <mxCell id="4g6vB5chk8NBOTjmCvvp-183" value="&lt;b style=&quot;&quot;&gt;&lt;font style=&quot;font-size: 65px;&quot;&gt;Relational&lt;/font&gt;&lt;/b&gt;" style="text;html=1;strokeColor=none;fillColor=none;align=center;verticalAlign=middle;whiteSpace=wrap;rounded=0;" parent="1" vertex="1">
          <mxGeometry x="-1692" y="-350" width="242" height="80" as="geometry" />
        </mxCell>
        <mxCell id="4g6vB5chk8NBOTjmCvvp-289" value="&lt;b&gt;Legend&lt;/b&gt;" style="whiteSpace=wrap;html=1;align=center;container=0;" parent="1" vertex="1">
          <mxGeometry x="-2691" y="-154.85000000000002" width="272" height="30" as="geometry" />
        </mxCell>
        <mxCell id="4g6vB5chk8NBOTjmCvvp-290" value="&lt;b style=&quot;border-color: var(--border-color);&quot;&gt;Black Bold - PK&amp;nbsp;&lt;/b&gt;" style="whiteSpace=wrap;html=1;align=center;container=0;" parent="1" vertex="1">
          <mxGeometry x="-2691" y="-124.85000000000002" width="272" height="31" as="geometry" />
        </mxCell>
        <mxCell id="4g6vB5chk8NBOTjmCvvp-291" value="&lt;b style=&quot;border-color: var(--border-color);&quot;&gt;&lt;font color=&quot;#3399ff&quot;&gt;Blue Bold&lt;/font&gt;&amp;nbsp; &amp;nbsp;- FK&amp;nbsp;&lt;/b&gt;" style="whiteSpace=wrap;html=1;align=center;container=0;" parent="1" vertex="1">
          <mxGeometry x="-2691" y="-93.85000000000002" width="272" height="30" as="geometry" />
        </mxCell>
        <mxCell id="4g6vB5chk8NBOTjmCvvp-292" value="&lt;b style=&quot;border-color: var(--border-color);&quot;&gt;&lt;font color=&quot;#00994d&quot;&gt;Green Bold&amp;nbsp; &amp;nbsp;&lt;/font&gt;- Index&lt;/b&gt;" style="whiteSpace=wrap;html=1;align=center;container=0;" parent="1" vertex="1">
          <mxGeometry x="-2691" y="-63.85000000000002" width="272" height="30" as="geometry" />
        </mxCell>
        <mxCell id="4g6vB5chk8NBOTjmCvvp-293" value="&lt;b style=&quot;border-color: var(--border-color);&quot;&gt;&lt;font color=&quot;#cc0000&quot;&gt;Red Bold&lt;/font&gt;&lt;font color=&quot;#00994d&quot;&gt;&amp;nbsp; &amp;nbsp;&lt;/font&gt;- Extra attributes&lt;/b&gt;" style="whiteSpace=wrap;html=1;align=center;container=0;" parent="1" vertex="1">
          <mxGeometry x="-2691" y="-33.85000000000002" width="272" height="30" as="geometry" />
        </mxCell>
        <mxCell id="4g6vB5chk8NBOTjmCvvp-395" value="&lt;b style=&quot;&quot;&gt;&lt;font style=&quot;font-size: 65px;&quot;&gt;ER&lt;/font&gt;&lt;/b&gt;" style="text;html=1;strokeColor=none;fillColor=none;align=center;verticalAlign=middle;whiteSpace=wrap;rounded=0;" parent="1" vertex="1">
          <mxGeometry x="-143.00000000000009" y="-313" width="242" height="80" as="geometry" />
        </mxCell>
        <mxCell id="4g6vB5chk8NBOTjmCvvp-398" value="&lt;b style=&quot;border-color: var(--border-color); color: rgb(255, 51, 51);&quot;&gt;Person&lt;/b&gt;" style="whiteSpace=wrap;html=1;align=center;" parent="1" vertex="1">
          <mxGeometry x="-44.410000000000025" y="93.05999999999989" width="70" height="29.74" as="geometry" />
        </mxCell>
        <mxCell id="4g6vB5chk8NBOTjmCvvp-399" value="&lt;b style=&quot;border-color: var(--border-color); color: rgb(255, 51, 51);&quot;&gt;Post&lt;/b&gt;" style="whiteSpace=wrap;html=1;align=center;" parent="1" vertex="1">
          <mxGeometry x="-357" y="93.05999999999989" width="70" height="29.74" as="geometry" />
        </mxCell>
        <mxCell id="4g6vB5chk8NBOTjmCvvp-401" value="&lt;font color=&quot;#3399ff&quot;&gt;&lt;b&gt;follow&lt;/b&gt;&lt;/font&gt;" style="shape=rhombus;perimeter=rhombusPerimeter;whiteSpace=wrap;html=1;align=center;" parent="1" vertex="1">
          <mxGeometry x="-42.61500000000002" y="15" width="66.41" height="43.78" as="geometry" />
        </mxCell>
        <mxCell id="4g6vB5chk8NBOTjmCvvp-410" value="&lt;b style=&quot;border-color: var(--border-color); color: rgb(255, 51, 51);&quot;&gt;Comment&lt;/b&gt;" style="whiteSpace=wrap;html=1;align=center;" parent="1" vertex="1">
          <mxGeometry x="-218.59" y="258" width="70" height="29.74" as="geometry" />
        </mxCell>
        <mxCell id="4g6vB5chk8NBOTjmCvvp-411" value="&lt;font color=&quot;#3399ff&quot;&gt;&lt;b&gt;post_comment&lt;/b&gt;&lt;/font&gt;" style="shape=rhombus;perimeter=rhombusPerimeter;whiteSpace=wrap;html=1;align=center;" parent="1" vertex="1">
          <mxGeometry x="-244.195" y="168" width="121.21" height="43.78" as="geometry" />
        </mxCell>
        <mxCell id="4g6vB5chk8NBOTjmCvvp-414" style="edgeStyle=none;html=1;endArrow=none;endFill=0;rounded=0;shape=link;" parent="1" source="4g6vB5chk8NBOTjmCvvp-410" target="4g6vB5chk8NBOTjmCvvp-411" edge="1">
          <mxGeometry relative="1" as="geometry">
            <mxPoint x="1.4000000000000057" y="262" as="sourcePoint" />
            <mxPoint x="70.4" y="262.25" as="targetPoint" />
          </mxGeometry>
        </mxCell>
        <mxCell id="4g6vB5chk8NBOTjmCvvp-415" value="&lt;font color=&quot;#3399ff&quot;&gt;&lt;b&gt;comment_like&lt;/b&gt;&lt;/font&gt;" style="shape=rhombus;perimeter=rhombusPerimeter;whiteSpace=wrap;html=1;align=center;" parent="1" vertex="1">
          <mxGeometry x="-70.01500000000001" y="250.98000000000002" width="121.21" height="43.78" as="geometry" />
        </mxCell>
        <mxCell id="4g6vB5chk8NBOTjmCvvp-416" style="html=1;endArrow=none;endFill=0;rounded=0;" parent="1" source="4g6vB5chk8NBOTjmCvvp-415" target="4g6vB5chk8NBOTjmCvvp-398" edge="1">
          <mxGeometry relative="1" as="geometry">
            <mxPoint x="-123.1" y="61.38999999999987" as="sourcePoint" />
            <mxPoint x="82.9" y="-6.610000000000127" as="targetPoint" />
          </mxGeometry>
        </mxCell>
        <mxCell id="4g6vB5chk8NBOTjmCvvp-417" style="rounded=0;orthogonalLoop=1;jettySize=auto;html=1;endArrow=none;endFill=0;" parent="1" source="4g6vB5chk8NBOTjmCvvp-415" target="4g6vB5chk8NBOTjmCvvp-410" edge="1">
          <mxGeometry relative="1" as="geometry">
            <mxPoint x="-95.6" y="265.3900000000001" as="sourcePoint" />
            <mxPoint x="-95.6" y="219.3900000000001" as="targetPoint" />
          </mxGeometry>
        </mxCell>
        <mxCell id="4g6vB5chk8NBOTjmCvvp-418" value="&lt;font color=&quot;#3399ff&quot;&gt;&lt;b&gt;post_like&lt;/b&gt;&lt;/font&gt;" style="shape=rhombus;perimeter=rhombusPerimeter;whiteSpace=wrap;html=1;align=center;" parent="1" vertex="1">
          <mxGeometry x="-227.195" y="15" width="87.21" height="43.78" as="geometry" />
        </mxCell>
        <mxCell id="4g6vB5chk8NBOTjmCvvp-419" style="html=1;endArrow=none;endFill=0;rounded=0;" parent="1" source="4g6vB5chk8NBOTjmCvvp-418" target="4g6vB5chk8NBOTjmCvvp-398" edge="1">
          <mxGeometry relative="1" as="geometry">
            <mxPoint x="42.68999999999997" y="84.98000000000002" as="sourcePoint" />
            <mxPoint x="70.68999999999997" y="-66.01999999999998" as="targetPoint" />
          </mxGeometry>
        </mxCell>
        <mxCell id="4g6vB5chk8NBOTjmCvvp-421" value="&lt;font color=&quot;#000000&quot;&gt;&lt;b&gt;&lt;font style=&quot;font-size: 14px;&quot;&gt;person_id&lt;/font&gt;&lt;/b&gt;&lt;br&gt;&lt;/font&gt;" style="ellipse;whiteSpace=wrap;html=1;align=center;rounded=1;labelBackgroundColor=none;fontFamily=Helvetica;fontSize=11;fontColor=default;" parent="1" vertex="1">
          <mxGeometry x="-134" y="193.00000000000003" width="77.2" height="26" as="geometry" />
        </mxCell>
        <mxCell id="4g6vB5chk8NBOTjmCvvp-422" style="edgeStyle=none;html=1;endArrow=none;endFill=0;rounded=0;" parent="1" source="4g6vB5chk8NBOTjmCvvp-398" target="4g6vB5chk8NBOTjmCvvp-421" edge="1">
          <mxGeometry relative="1" as="geometry">
            <mxPoint x="60.400000000000006" y="92" as="sourcePoint" />
            <mxPoint x="129.4" y="92.25" as="targetPoint" />
          </mxGeometry>
        </mxCell>
        <mxCell id="4g6vB5chk8NBOTjmCvvp-423" value="&lt;font color=&quot;#000000&quot;&gt;created_at&lt;br&gt;&lt;/font&gt;" style="ellipse;whiteSpace=wrap;html=1;align=center;rounded=1;labelBackgroundColor=none;fontFamily=Helvetica;fontSize=11;fontColor=default;" parent="1" vertex="1">
          <mxGeometry x="-47.410000000000025" y="-40.870000000000005" width="76" height="30" as="geometry" />
        </mxCell>
        <mxCell id="4g6vB5chk8NBOTjmCvvp-424" style="edgeStyle=none;html=1;endArrow=none;endFill=0;rounded=0;" parent="1" source="4g6vB5chk8NBOTjmCvvp-423" target="4g6vB5chk8NBOTjmCvvp-401" edge="1">
          <mxGeometry relative="1" as="geometry">
            <mxPoint x="234.26" y="55.09999999999991" as="sourcePoint" />
            <mxPoint x="303.26" y="133.0999999999999" as="targetPoint" />
          </mxGeometry>
        </mxCell>
        <mxCell id="4g6vB5chk8NBOTjmCvvp-425" value="&lt;font color=&quot;#000000&quot;&gt;first_name&lt;br&gt;&lt;/font&gt;" style="ellipse;whiteSpace=wrap;html=1;align=center;rounded=1;labelBackgroundColor=none;fontFamily=Helvetica;fontSize=11;fontColor=default;" parent="1" vertex="1">
          <mxGeometry x="-5" y="219" width="76" height="30" as="geometry" />
        </mxCell>
        <mxCell id="4g6vB5chk8NBOTjmCvvp-426" style="edgeStyle=none;html=1;endArrow=none;endFill=0;rounded=0;" parent="1" source="4g6vB5chk8NBOTjmCvvp-398" target="4g6vB5chk8NBOTjmCvvp-425" edge="1">
          <mxGeometry relative="1" as="geometry">
            <mxPoint x="135.48" y="116.3900000000001" as="sourcePoint" />
            <mxPoint x="199.48000000000002" y="190.3900000000001" as="targetPoint" />
          </mxGeometry>
        </mxCell>
        <mxCell id="4g6vB5chk8NBOTjmCvvp-427" value="&lt;font color=&quot;#000000&quot;&gt;birthdate&lt;br&gt;&lt;/font&gt;" style="ellipse;whiteSpace=wrap;html=1;align=center;rounded=1;labelBackgroundColor=none;fontFamily=Helvetica;fontSize=11;fontColor=default;" parent="1" vertex="1">
          <mxGeometry x="107" y="181.78" width="76" height="30" as="geometry" />
        </mxCell>
        <mxCell id="4g6vB5chk8NBOTjmCvvp-428" style="edgeStyle=none;html=1;endArrow=none;endFill=0;rounded=0;" parent="1" source="4g6vB5chk8NBOTjmCvvp-398" target="4g6vB5chk8NBOTjmCvvp-427" edge="1">
          <mxGeometry relative="1" as="geometry">
            <mxPoint x="122.73999999999998" y="103.3900000000001" as="sourcePoint" />
            <mxPoint x="199.74" y="146.3900000000001" as="targetPoint" />
          </mxGeometry>
        </mxCell>
        <mxCell id="4g6vB5chk8NBOTjmCvvp-429" value="&lt;font color=&quot;#000000&quot;&gt;email&lt;br&gt;&lt;/font&gt;" style="ellipse;whiteSpace=wrap;html=1;align=center;rounded=1;labelBackgroundColor=none;fontFamily=Helvetica;fontSize=11;fontColor=default;" parent="1" vertex="1">
          <mxGeometry x="107" y="144.19" width="76" height="30" as="geometry" />
        </mxCell>
        <mxCell id="4g6vB5chk8NBOTjmCvvp-430" style="edgeStyle=none;html=1;endArrow=none;endFill=0;rounded=0;" parent="1" source="4g6vB5chk8NBOTjmCvvp-398" target="4g6vB5chk8NBOTjmCvvp-429" edge="1">
          <mxGeometry relative="1" as="geometry">
            <mxPoint x="227.01999999999998" y="200.3900000000001" as="sourcePoint" />
            <mxPoint x="266.02" y="255.3900000000001" as="targetPoint" />
          </mxGeometry>
        </mxCell>
        <mxCell id="4g6vB5chk8NBOTjmCvvp-431" value="&lt;font color=&quot;#000000&quot;&gt;&lt;b&gt;&lt;font style=&quot;font-size: 14px;&quot;&gt;post_id&lt;/font&gt;&lt;/b&gt;&lt;br&gt;&lt;/font&gt;" style="ellipse;whiteSpace=wrap;html=1;align=center;rounded=1;labelBackgroundColor=none;fontFamily=Helvetica;fontSize=11;fontColor=default;" parent="1" vertex="1">
          <mxGeometry x="-441" y="94.92999999999988" width="70" height="26" as="geometry" />
        </mxCell>
        <mxCell id="4g6vB5chk8NBOTjmCvvp-432" style="edgeStyle=none;html=1;endArrow=none;endFill=0;rounded=0;" parent="1" source="4g6vB5chk8NBOTjmCvvp-431" target="4g6vB5chk8NBOTjmCvvp-399" edge="1">
          <mxGeometry relative="1" as="geometry">
            <mxPoint y="92.19" as="sourcePoint" />
            <mxPoint x="69" y="92.44" as="targetPoint" />
          </mxGeometry>
        </mxCell>
        <mxCell id="4g6vB5chk8NBOTjmCvvp-433" value="&lt;font color=&quot;#000000&quot;&gt;content&lt;br&gt;&lt;/font&gt;" style="ellipse;whiteSpace=wrap;html=1;align=center;rounded=1;labelBackgroundColor=none;fontFamily=Helvetica;fontSize=11;fontColor=default;" parent="1" vertex="1">
          <mxGeometry x="-429" y="132.24" width="76" height="30" as="geometry" />
        </mxCell>
        <mxCell id="4g6vB5chk8NBOTjmCvvp-434" style="edgeStyle=none;html=1;endArrow=none;endFill=0;rounded=0;" parent="1" source="4g6vB5chk8NBOTjmCvvp-433" target="4g6vB5chk8NBOTjmCvvp-399" edge="1">
          <mxGeometry relative="1" as="geometry">
            <mxPoint x="-395" y="139.93" as="sourcePoint" />
            <mxPoint x="-357" y="139.93" as="targetPoint" />
          </mxGeometry>
        </mxCell>
        <mxCell id="4g6vB5chk8NBOTjmCvvp-435" value="&lt;font color=&quot;#000000&quot;&gt;last_name&lt;br&gt;&lt;/font&gt;" style="ellipse;whiteSpace=wrap;html=1;align=center;rounded=1;labelBackgroundColor=none;fontFamily=Helvetica;fontSize=11;fontColor=default;" parent="1" vertex="1">
          <mxGeometry x="73" y="214" width="76" height="30" as="geometry" />
        </mxCell>
        <mxCell id="4g6vB5chk8NBOTjmCvvp-436" style="edgeStyle=none;html=1;endArrow=none;endFill=0;rounded=0;" parent="1" source="4g6vB5chk8NBOTjmCvvp-398" target="4g6vB5chk8NBOTjmCvvp-435" edge="1">
          <mxGeometry relative="1" as="geometry">
            <mxPoint x="125.78" y="86.3900000000001" as="sourcePoint" />
            <mxPoint x="220.77999999999997" y="177.3900000000001" as="targetPoint" />
          </mxGeometry>
        </mxCell>
        <mxCell id="4g6vB5chk8NBOTjmCvvp-437" value="&lt;font color=&quot;#000000&quot;&gt;created_at&lt;br&gt;&lt;/font&gt;" style="ellipse;whiteSpace=wrap;html=1;align=center;rounded=1;labelBackgroundColor=none;fontFamily=Helvetica;fontSize=11;fontColor=default;" parent="1" vertex="1">
          <mxGeometry x="-360" y="153.82" width="76" height="30" as="geometry" />
        </mxCell>
        <mxCell id="4g6vB5chk8NBOTjmCvvp-438" style="edgeStyle=none;html=1;endArrow=none;endFill=0;rounded=0;" parent="1" source="4g6vB5chk8NBOTjmCvvp-437" target="4g6vB5chk8NBOTjmCvvp-399" edge="1">
          <mxGeometry relative="1" as="geometry">
            <mxPoint x="-357.44000000000005" y="169.2999999999999" as="sourcePoint" />
            <mxPoint x="-313.43999999999994" y="138.2999999999999" as="targetPoint" />
          </mxGeometry>
        </mxCell>
        <mxCell id="4g6vB5chk8NBOTjmCvvp-439" value="&lt;font color=&quot;#000000&quot;&gt;created_at&lt;br&gt;&lt;/font&gt;" style="ellipse;whiteSpace=wrap;html=1;align=center;rounded=1;labelBackgroundColor=none;fontFamily=Helvetica;fontSize=11;fontColor=default;" parent="1" vertex="1">
          <mxGeometry x="129" y="70" width="76" height="30" as="geometry" />
        </mxCell>
        <mxCell id="4g6vB5chk8NBOTjmCvvp-440" style="edgeStyle=none;html=1;endArrow=none;endFill=0;rounded=0;" parent="1" source="4g6vB5chk8NBOTjmCvvp-439" target="4g6vB5chk8NBOTjmCvvp-398" edge="1">
          <mxGeometry relative="1" as="geometry">
            <mxPoint x="353.9599999999999" y="172.1099999999999" as="sourcePoint" />
            <mxPoint x="389.4" y="130" as="targetPoint" />
          </mxGeometry>
        </mxCell>
        <mxCell id="4g6vB5chk8NBOTjmCvvp-441" value="&lt;font color=&quot;#000000&quot;&gt;created_at&lt;br&gt;&lt;/font&gt;" style="ellipse;whiteSpace=wrap;html=1;align=center;rounded=1;labelBackgroundColor=none;fontFamily=Helvetica;fontSize=11;fontColor=default;" parent="1" vertex="1">
          <mxGeometry x="-221.59" y="-40.870000000000005" width="76" height="30" as="geometry" />
        </mxCell>
        <mxCell id="4g6vB5chk8NBOTjmCvvp-442" style="edgeStyle=none;html=1;endArrow=none;endFill=0;rounded=0;" parent="1" source="4g6vB5chk8NBOTjmCvvp-441" target="4g6vB5chk8NBOTjmCvvp-418" edge="1">
          <mxGeometry relative="1" as="geometry">
            <mxPoint x="-107.12999999999997" y="128.0999999999999" as="sourcePoint" />
            <mxPoint x="-170.98999999999998" y="-16" as="targetPoint" />
          </mxGeometry>
        </mxCell>
        <mxCell id="4g6vB5chk8NBOTjmCvvp-443" value="&lt;font color=&quot;#000000&quot;&gt;created_at&lt;br&gt;&lt;/font&gt;" style="ellipse;whiteSpace=wrap;html=1;align=center;rounded=1;labelBackgroundColor=none;fontFamily=Helvetica;fontSize=11;fontColor=default;" parent="1" vertex="1">
          <mxGeometry x="-129" y="302" width="76" height="30" as="geometry" />
        </mxCell>
        <mxCell id="4g6vB5chk8NBOTjmCvvp-444" style="edgeStyle=none;html=1;endArrow=none;endFill=0;rounded=0;" parent="1" source="4g6vB5chk8NBOTjmCvvp-443" target="4g6vB5chk8NBOTjmCvvp-410" edge="1">
          <mxGeometry relative="1" as="geometry">
            <mxPoint x="-177.13999999999996" y="517.0999999999999" as="sourcePoint" />
            <mxPoint x="-253.60999999999999" y="378" as="targetPoint" />
          </mxGeometry>
        </mxCell>
        <mxCell id="4g6vB5chk8NBOTjmCvvp-445" value="&lt;font color=&quot;#000000&quot;&gt;msg&lt;br&gt;&lt;/font&gt;" style="ellipse;whiteSpace=wrap;html=1;align=center;rounded=1;labelBackgroundColor=none;fontFamily=Helvetica;fontSize=11;fontColor=default;" parent="1" vertex="1">
          <mxGeometry x="-221.59" y="302" width="76" height="30" as="geometry" />
        </mxCell>
        <mxCell id="4g6vB5chk8NBOTjmCvvp-446" style="edgeStyle=none;html=1;endArrow=none;endFill=0;rounded=0;" parent="1" source="4g6vB5chk8NBOTjmCvvp-445" target="4g6vB5chk8NBOTjmCvvp-410" edge="1">
          <mxGeometry relative="1" as="geometry">
            <mxPoint x="-167.59" y="343.8299999999999" as="sourcePoint" />
            <mxPoint x="-129.59" y="330.0899999999999" as="targetPoint" />
          </mxGeometry>
        </mxCell>
        <mxCell id="4g6vB5chk8NBOTjmCvvp-447" value="&lt;font color=&quot;#000000&quot;&gt;&lt;b&gt;&lt;font style=&quot;font-size: 14px;&quot;&gt;comment_id&lt;/font&gt;&lt;/b&gt;&lt;br&gt;&lt;/font&gt;" style="ellipse;whiteSpace=wrap;html=1;align=center;rounded=1;labelBackgroundColor=none;fontFamily=Helvetica;fontSize=11;fontColor=default;" parent="1" vertex="1">
          <mxGeometry x="-344" y="302" width="106" height="26" as="geometry" />
        </mxCell>
        <mxCell id="4g6vB5chk8NBOTjmCvvp-448" style="edgeStyle=none;html=1;endArrow=none;endFill=0;rounded=0;" parent="1" source="4g6vB5chk8NBOTjmCvvp-447" target="4g6vB5chk8NBOTjmCvvp-410" edge="1">
          <mxGeometry relative="1" as="geometry">
            <mxPoint x="44.400000000000006" y="267" as="sourcePoint" />
            <mxPoint x="-312.6" y="287" as="targetPoint" />
          </mxGeometry>
        </mxCell>
        <mxCell id="4g6vB5chk8NBOTjmCvvp-449" value="&lt;font color=&quot;#000000&quot;&gt;created_at&lt;br&gt;&lt;/font&gt;" style="ellipse;whiteSpace=wrap;html=1;align=center;rounded=1;labelBackgroundColor=none;fontFamily=Helvetica;fontSize=11;fontColor=default;" parent="1" vertex="1">
          <mxGeometry x="-47.00000000000003" y="317" width="76" height="30" as="geometry" />
        </mxCell>
        <mxCell id="4g6vB5chk8NBOTjmCvvp-450" style="edgeStyle=none;html=1;endArrow=none;endFill=0;rounded=0;" parent="1" source="4g6vB5chk8NBOTjmCvvp-449" target="4g6vB5chk8NBOTjmCvvp-415" edge="1">
          <mxGeometry relative="1" as="geometry">
            <mxPoint x="8.860000000000042" y="533.3599999999999" as="sourcePoint" />
            <mxPoint x="17.400000000000006" y="304.26" as="targetPoint" />
          </mxGeometry>
        </mxCell>
        <mxCell id="4g6vB5chk8NBOTjmCvvp-453" value="&lt;font color=&quot;#000000&quot;&gt;password&lt;br&gt;&lt;/font&gt;" style="ellipse;whiteSpace=wrap;html=1;align=center;rounded=1;labelBackgroundColor=none;fontFamily=Helvetica;fontSize=11;fontColor=default;" parent="1" vertex="1">
          <mxGeometry x="125" y="112.19" width="76" height="30" as="geometry" />
        </mxCell>
        <mxCell id="4g6vB5chk8NBOTjmCvvp-454" style="edgeStyle=none;html=1;endArrow=none;endFill=0;rounded=0;" parent="1" source="4g6vB5chk8NBOTjmCvvp-398" target="4g6vB5chk8NBOTjmCvvp-453" edge="1">
          <mxGeometry relative="1" as="geometry">
            <mxPoint x="173.4" y="96.40000000000009" as="sourcePoint" />
            <mxPoint x="301.4" y="106.40000000000009" as="targetPoint" />
          </mxGeometry>
        </mxCell>
        <mxCell id="4g6vB5chk8NBOTjmCvvp-455" value="&lt;font color=&quot;#000000&quot;&gt;username&lt;br&gt;&lt;/font&gt;" style="ellipse;whiteSpace=wrap;html=1;align=center;rounded=1;labelBackgroundColor=none;fontFamily=Helvetica;fontSize=11;fontColor=default;" parent="1" vertex="1">
          <mxGeometry x="-91" y="219" width="76" height="30" as="geometry" />
        </mxCell>
        <mxCell id="4g6vB5chk8NBOTjmCvvp-456" style="edgeStyle=none;html=1;endArrow=none;endFill=0;rounded=0;" parent="1" source="4g6vB5chk8NBOTjmCvvp-398" target="4g6vB5chk8NBOTjmCvvp-455" edge="1">
          <mxGeometry relative="1" as="geometry">
            <mxPoint x="117.14000000000001" y="117.3900000000001" as="sourcePoint" />
            <mxPoint x="152.14000000000001" y="198.3900000000001" as="targetPoint" />
          </mxGeometry>
        </mxCell>
        <mxCell id="4g6vB5chk8NBOTjmCvvp-461" value="&lt;font color=&quot;#3399ff&quot;&gt;&lt;b&gt;posted_by&lt;/b&gt;&lt;/font&gt;" style="shape=rhombus;perimeter=rhombusPerimeter;whiteSpace=wrap;html=1;align=center;" parent="1" vertex="1">
          <mxGeometry x="-229.195" y="86.03999999999989" width="91.21" height="43.78" as="geometry" />
        </mxCell>
        <mxCell id="4g6vB5chk8NBOTjmCvvp-462" style="rounded=0;orthogonalLoop=1;jettySize=auto;html=1;endArrow=block;endFill=1;" parent="1" source="4g6vB5chk8NBOTjmCvvp-461" target="4g6vB5chk8NBOTjmCvvp-398" edge="1">
          <mxGeometry relative="1" as="geometry">
            <mxPoint x="-66.78999999999996" y="110.11000000000001" as="sourcePoint" />
            <mxPoint x="-135" y="110" as="targetPoint" />
          </mxGeometry>
        </mxCell>
        <mxCell id="4g6vB5chk8NBOTjmCvvp-463" style="edgeStyle=none;html=1;endArrow=none;endFill=0;rounded=0;shape=link;" parent="1" source="4g6vB5chk8NBOTjmCvvp-399" target="4g6vB5chk8NBOTjmCvvp-461" edge="1">
          <mxGeometry relative="1" as="geometry">
            <mxPoint x="-205" y="105" as="sourcePoint" />
            <mxPoint x="-136" y="105.25" as="targetPoint" />
          </mxGeometry>
        </mxCell>
        <mxCell id="4g6vB5chk8NBOTjmCvvp-466" style="rounded=0;orthogonalLoop=1;jettySize=auto;html=1;endArrow=block;endFill=1;" parent="1" source="4g6vB5chk8NBOTjmCvvp-411" target="4g6vB5chk8NBOTjmCvvp-399" edge="1">
          <mxGeometry relative="1" as="geometry">
            <mxPoint x="-61.789999999999964" y="146.11" as="sourcePoint" />
            <mxPoint x="-130" y="146" as="targetPoint" />
          </mxGeometry>
        </mxCell>
        <mxCell id="4g6vB5chk8NBOTjmCvvp-467" style="rounded=0;orthogonalLoop=1;jettySize=auto;html=1;endArrow=block;endFill=1;" parent="1" source="4g6vB5chk8NBOTjmCvvp-411" target="4g6vB5chk8NBOTjmCvvp-398" edge="1">
          <mxGeometry relative="1" as="geometry">
            <mxPoint x="20" y="184.07000000000005" as="sourcePoint" />
            <mxPoint x="-127" y="116.07000000000005" as="targetPoint" />
          </mxGeometry>
        </mxCell>
        <mxCell id="4g6vB5chk8NBOTjmCvvp-468" style="html=1;endArrow=none;endFill=0;rounded=0;" parent="1" source="4g6vB5chk8NBOTjmCvvp-399" target="4g6vB5chk8NBOTjmCvvp-418" edge="1">
          <mxGeometry relative="1" as="geometry">
            <mxPoint x="-288" y="55" as="sourcePoint" />
            <mxPoint x="-219" y="55.25" as="targetPoint" />
          </mxGeometry>
        </mxCell>
        <mxCell id="NvgXYQUHseZZ3Qn02gF4-19" value="&lt;b style=&quot;border-color: var(--border-color); color: rgb(255, 51, 51);&quot;&gt;Tag&lt;/b&gt;" style="whiteSpace=wrap;html=1;align=center;" parent="1" vertex="1">
          <mxGeometry x="-357" y="-40.74" width="70" height="29.74" as="geometry" />
        </mxCell>
        <mxCell id="NvgXYQUHseZZ3Qn02gF4-20" value="&lt;font color=&quot;#3399ff&quot;&gt;&lt;b&gt;post_tag&lt;/b&gt;&lt;/font&gt;" style="shape=rhombus;perimeter=rhombusPerimeter;whiteSpace=wrap;html=1;align=center;" parent="1" vertex="1">
          <mxGeometry x="-361.395" y="15" width="78.79" height="43.78" as="geometry" />
        </mxCell>
        <mxCell id="NvgXYQUHseZZ3Qn02gF4-22" style="html=1;endArrow=none;endFill=0;rounded=0;" parent="1" source="NvgXYQUHseZZ3Qn02gF4-19" target="NvgXYQUHseZZ3Qn02gF4-20" edge="1">
          <mxGeometry relative="1" as="geometry">
            <mxPoint x="-293.43" y="-81.68" as="sourcePoint" />
            <mxPoint x="-293.43" y="73.32" as="targetPoint" />
          </mxGeometry>
        </mxCell>
        <mxCell id="NvgXYQUHseZZ3Qn02gF4-23" style="html=1;endArrow=none;endFill=0;rounded=0;" parent="1" source="NvgXYQUHseZZ3Qn02gF4-20" target="4g6vB5chk8NBOTjmCvvp-399" edge="1">
          <mxGeometry relative="1" as="geometry">
            <mxPoint x="-417" y="-36.93" as="sourcePoint" />
            <mxPoint x="-417" y="0.0700000000000025" as="targetPoint" />
          </mxGeometry>
        </mxCell>
        <mxCell id="NvgXYQUHseZZ3Qn02gF4-25" value="&lt;font color=&quot;#000000&quot;&gt;&lt;b&gt;&lt;font style=&quot;font-size: 14px;&quot;&gt;tag_id&lt;/font&gt;&lt;/b&gt;&lt;br&gt;&lt;/font&gt;" style="ellipse;whiteSpace=wrap;html=1;align=center;rounded=1;labelBackgroundColor=none;fontFamily=Helvetica;fontSize=11;fontColor=default;" parent="1" vertex="1">
          <mxGeometry x="-400" y="-95.81000000000012" width="70" height="26" as="geometry" />
        </mxCell>
        <mxCell id="NvgXYQUHseZZ3Qn02gF4-26" style="edgeStyle=none;html=1;endArrow=none;endFill=0;rounded=0;" parent="1" source="NvgXYQUHseZZ3Qn02gF4-25" target="NvgXYQUHseZZ3Qn02gF4-19" edge="1">
          <mxGeometry relative="1" as="geometry">
            <mxPoint x="-37" y="-198.55" as="sourcePoint" />
            <mxPoint x="-394" y="-182.55" as="targetPoint" />
          </mxGeometry>
        </mxCell>
        <mxCell id="NvgXYQUHseZZ3Qn02gF4-27" value="&lt;font color=&quot;#000000&quot;&gt;name&lt;br&gt;&lt;/font&gt;" style="ellipse;whiteSpace=wrap;html=1;align=center;rounded=1;labelBackgroundColor=none;fontFamily=Helvetica;fontSize=11;fontColor=default;" parent="1" vertex="1">
          <mxGeometry x="-311" y="-96.81000000000012" width="54" height="28" as="geometry" />
        </mxCell>
        <mxCell id="NvgXYQUHseZZ3Qn02gF4-28" style="edgeStyle=none;html=1;endArrow=none;endFill=0;rounded=0;" parent="1" source="NvgXYQUHseZZ3Qn02gF4-27" target="NvgXYQUHseZZ3Qn02gF4-19" edge="1">
          <mxGeometry relative="1" as="geometry">
            <mxPoint x="-283" y="-160.07" as="sourcePoint" />
            <mxPoint x="-241" y="-176.81" as="targetPoint" />
          </mxGeometry>
        </mxCell>
        <mxCell id="NvgXYQUHseZZ3Qn02gF4-43" value="&lt;font color=&quot;#3399ff&quot;&gt;&lt;b&gt;comment_parent&lt;/b&gt;&lt;/font&gt;" style="shape=rhombus;perimeter=rhombusPerimeter;whiteSpace=wrap;html=1;align=center;" parent="1" vertex="1">
          <mxGeometry x="-428.9999999999999" y="250.98000000000002" width="121.21" height="43.78" as="geometry" />
        </mxCell>
        <mxCell id="NvgXYQUHseZZ3Qn02gF4-44" style="rounded=0;orthogonalLoop=1;jettySize=auto;html=1;endArrow=none;endFill=0;" parent="1" source="NvgXYQUHseZZ3Qn02gF4-43" target="4g6vB5chk8NBOTjmCvvp-410" edge="1">
          <mxGeometry relative="1" as="geometry">
            <mxPoint x="-350" y="225.26" as="sourcePoint" />
            <mxPoint x="-177" y="225.26" as="targetPoint" />
            <Array as="points">
              <mxPoint x="-263" y="233" />
            </Array>
          </mxGeometry>
        </mxCell>
        <mxCell id="NvgXYQUHseZZ3Qn02gF4-45" style="rounded=0;orthogonalLoop=1;jettySize=auto;html=1;endArrow=block;endFill=1;" parent="1" source="NvgXYQUHseZZ3Qn02gF4-43" target="4g6vB5chk8NBOTjmCvvp-410" edge="1">
          <mxGeometry relative="1" as="geometry">
            <mxPoint x="-226.41" y="236.13" as="sourcePoint" />
            <mxPoint x="-315.41" y="236.13" as="targetPoint" />
            <Array as="points" />
          </mxGeometry>
        </mxCell>
        <mxCell id="jXatoXMq33lXqJdieAz0-2" value="&lt;font color=&quot;#3399ff&quot;&gt;&lt;b&gt;lives&lt;/b&gt;&lt;/font&gt;" style="shape=rhombus;perimeter=rhombusPerimeter;whiteSpace=wrap;html=1;align=center;" parent="1" vertex="1">
          <mxGeometry x="218.4" y="86.03999999999989" width="66.41" height="43.78" as="geometry" />
        </mxCell>
        <mxCell id="jXatoXMq33lXqJdieAz0-4" style="html=1;endArrow=none;endFill=0;rounded=0;shape=link;" parent="1" source="jXatoXMq33lXqJdieAz0-2" target="4g6vB5chk8NBOTjmCvvp-398" edge="1">
          <mxGeometry relative="1" as="geometry">
            <mxPoint x="29.6" y="-68.7" as="sourcePoint" />
            <mxPoint x="29.6" y="90.3" as="targetPoint" />
          </mxGeometry>
        </mxCell>
        <mxCell id="jXatoXMq33lXqJdieAz0-163" value="&lt;font color=&quot;#ff3333&quot;&gt;&lt;b&gt;Country&lt;/b&gt;&lt;/font&gt;" style="whiteSpace=wrap;html=1;align=center;" parent="1" vertex="1">
          <mxGeometry x="74.10999999999999" y="-40.74" width="70" height="29.74" as="geometry" />
        </mxCell>
        <mxCell id="jXatoXMq33lXqJdieAz0-164" style="rounded=0;orthogonalLoop=1;jettySize=auto;html=1;endArrow=block;endFill=1;" parent="1" source="jXatoXMq33lXqJdieAz0-176" target="jXatoXMq33lXqJdieAz0-163" edge="1">
          <mxGeometry relative="1" as="geometry">
            <mxPoint x="193.51" y="-345.71" as="sourcePoint" />
          </mxGeometry>
        </mxCell>
        <mxCell id="jXatoXMq33lXqJdieAz0-165" style="rounded=0;orthogonalLoop=1;jettySize=auto;html=1;shape=link;" parent="1" source="jXatoXMq33lXqJdieAz0-176" target="jXatoXMq33lXqJdieAz0-177" edge="1">
          <mxGeometry relative="1" as="geometry">
            <mxPoint x="263.51" y="-345.71" as="sourcePoint" />
            <mxPoint x="317.51" y="-345.7100000000001" as="targetPoint" />
          </mxGeometry>
        </mxCell>
        <mxCell id="jXatoXMq33lXqJdieAz0-166" style="rounded=0;orthogonalLoop=1;jettySize=auto;html=1;shape=link;" parent="1" source="jXatoXMq33lXqJdieAz0-175" target="jXatoXMq33lXqJdieAz0-174" edge="1">
          <mxGeometry relative="1" as="geometry">
            <mxPoint x="500.51" y="-345.71" as="sourcePoint" />
            <mxPoint x="543.51" y="-345.7100000000002" as="targetPoint" />
          </mxGeometry>
        </mxCell>
        <mxCell id="jXatoXMq33lXqJdieAz0-167" style="rounded=0;orthogonalLoop=1;jettySize=auto;html=1;endArrow=block;endFill=1;" parent="1" source="jXatoXMq33lXqJdieAz0-175" target="jXatoXMq33lXqJdieAz0-177" edge="1">
          <mxGeometry relative="1" as="geometry">
            <mxPoint x="430.51" y="-345.71" as="sourcePoint" />
            <mxPoint x="387.51" y="-345.7100000000001" as="targetPoint" />
          </mxGeometry>
        </mxCell>
        <mxCell id="jXatoXMq33lXqJdieAz0-168" value="&lt;font color=&quot;#000000&quot;&gt;&lt;b&gt;country_id&lt;br&gt;&lt;/b&gt;&lt;/font&gt;" style="ellipse;whiteSpace=wrap;html=1;align=center;rounded=1;labelBackgroundColor=none;" parent="1" vertex="1">
          <mxGeometry x="29" y="-97.81000000000012" width="70" height="30" as="geometry" />
        </mxCell>
        <mxCell id="jXatoXMq33lXqJdieAz0-169" style="edgeStyle=none;html=1;endArrow=none;endFill=0;rounded=0;" parent="1" source="jXatoXMq33lXqJdieAz0-168" target="jXatoXMq33lXqJdieAz0-163" edge="1">
          <mxGeometry relative="1" as="geometry">
            <mxPoint x="263.51" y="-307.71" as="sourcePoint" />
            <mxPoint x="332.51" y="-307.46" as="targetPoint" />
          </mxGeometry>
        </mxCell>
        <mxCell id="jXatoXMq33lXqJdieAz0-170" style="edgeStyle=none;html=1;endArrow=none;endFill=0;rounded=0;" parent="1" source="jXatoXMq33lXqJdieAz0-178" target="jXatoXMq33lXqJdieAz0-163" edge="1">
          <mxGeometry relative="1" as="geometry">
            <mxPoint x="159.64280425073116" y="-386.56794454634013" as="sourcePoint" />
            <mxPoint x="112.43999999999983" y="-360.71" as="targetPoint" />
          </mxGeometry>
        </mxCell>
        <mxCell id="jXatoXMq33lXqJdieAz0-171" style="edgeStyle=none;html=1;endArrow=none;endFill=0;rounded=0;" parent="1" source="jXatoXMq33lXqJdieAz0-179" target="jXatoXMq33lXqJdieAz0-177" edge="1">
          <mxGeometry relative="1" as="geometry">
            <mxPoint x="357.51" y="-382.71" as="sourcePoint" />
            <mxPoint x="363.05418181818163" y="-360.5800000000001" as="targetPoint" />
          </mxGeometry>
        </mxCell>
        <mxCell id="jXatoXMq33lXqJdieAz0-172" style="edgeStyle=none;html=1;endArrow=none;endFill=0;rounded=0;" parent="1" source="jXatoXMq33lXqJdieAz0-180" target="jXatoXMq33lXqJdieAz0-174" edge="1">
          <mxGeometry relative="1" as="geometry">
            <mxPoint x="578.51" y="-382.71" as="sourcePoint" />
            <mxPoint x="589.3245454545456" y="-360.5800000000001" as="targetPoint" />
          </mxGeometry>
        </mxCell>
        <mxCell id="jXatoXMq33lXqJdieAz0-173" style="rounded=0;orthogonalLoop=1;jettySize=auto;html=1;endArrow=block;endFill=1;" parent="1" source="jXatoXMq33lXqJdieAz0-2" target="jXatoXMq33lXqJdieAz0-174" edge="1">
          <mxGeometry relative="1" as="geometry">
            <mxPoint x="578.51" y="-295.71" as="sourcePoint" />
            <mxPoint x="578.51" y="-330.8400000000001" as="targetPoint" />
          </mxGeometry>
        </mxCell>
        <mxCell id="jXatoXMq33lXqJdieAz0-174" value="&lt;b style=&quot;border-color: var(--border-color); color: rgb(255, 51, 51);&quot;&gt;City&lt;/b&gt;" style="shape=ext;double=1;rounded=0;whiteSpace=wrap;html=1;" parent="1" vertex="1">
          <mxGeometry x="344" y="93.05999999999989" width="80" height="29.74" as="geometry" />
        </mxCell>
        <mxCell id="jXatoXMq33lXqJdieAz0-175" value="&lt;b style=&quot;color: rgb(51, 153, 255);&quot;&gt;from&lt;/b&gt;" style="shape=rhombus;double=1;perimeter=rhombusPerimeter;whiteSpace=wrap;html=1;align=center;" parent="1" vertex="1">
          <mxGeometry x="349.40000000000003" y="10.89" width="69.2" height="52" as="geometry" />
        </mxCell>
        <mxCell id="jXatoXMq33lXqJdieAz0-176" value="&lt;b style=&quot;color: rgb(51, 153, 255);&quot;&gt;from&lt;/b&gt;" style="shape=rhombus;double=1;perimeter=rhombusPerimeter;whiteSpace=wrap;html=1;align=center;" parent="1" vertex="1">
          <mxGeometry x="217.00999999999993" y="-51.870000000000005" width="69.2" height="52" as="geometry" />
        </mxCell>
        <mxCell id="jXatoXMq33lXqJdieAz0-177" value="&lt;b style=&quot;border-color: var(--border-color); color: rgb(255, 51, 51);&quot;&gt;District&lt;/b&gt;" style="shape=ext;double=1;rounded=0;whiteSpace=wrap;html=1;" parent="1" vertex="1">
          <mxGeometry x="344" y="-40.74" width="80" height="29.74" as="geometry" />
        </mxCell>
        <mxCell id="jXatoXMq33lXqJdieAz0-178" value="name" style="ellipse;whiteSpace=wrap;html=1;align=center;fontFamily=Helvetica;fontSize=11;fontColor=default;" parent="1" vertex="1">
          <mxGeometry x="116.00999999999999" y="-97.81000000000012" width="66.99" height="30" as="geometry" />
        </mxCell>
        <mxCell id="jXatoXMq33lXqJdieAz0-179" value="&lt;span style=&quot;border-bottom: 1px dotted&quot;&gt;&lt;font style=&quot;font-size: 11px;&quot;&gt;district_name&lt;/font&gt;&lt;/span&gt;" style="ellipse;whiteSpace=wrap;html=1;align=center;fontFamily=Helvetica;fontSize=11;fontColor=default;" parent="1" vertex="1">
          <mxGeometry x="340" y="-97.81000000000012" width="87.99" height="30" as="geometry" />
        </mxCell>
        <mxCell id="jXatoXMq33lXqJdieAz0-180" value="&lt;span style=&quot;border-bottom: 1px dotted&quot;&gt;&lt;font style=&quot;font-size: 11px;&quot;&gt;city_name&lt;/font&gt;&lt;/span&gt;" style="ellipse;whiteSpace=wrap;html=1;align=center;fontFamily=Helvetica;fontSize=11;fontColor=default;" parent="1" vertex="1">
          <mxGeometry x="350.5" y="142.19" width="66.99" height="30" as="geometry" />
        </mxCell>
        <mxCell id="jXatoXMq33lXqJdieAz0-182" value="&lt;font color=&quot;#3399ff&quot;&gt;&lt;b&gt;born&lt;/b&gt;&lt;/font&gt;" style="shape=rhombus;perimeter=rhombusPerimeter;whiteSpace=wrap;html=1;align=center;" parent="1" vertex="1">
          <mxGeometry x="75.90000000000003" y="15" width="66.41" height="43.78" as="geometry" />
        </mxCell>
        <mxCell id="jXatoXMq33lXqJdieAz0-183" style="html=1;endArrow=none;endFill=0;rounded=0;shape=link;" parent="1" source="jXatoXMq33lXqJdieAz0-182" target="4g6vB5chk8NBOTjmCvvp-398" edge="1">
          <mxGeometry relative="1" as="geometry">
            <mxPoint x="377.6" y="94" as="sourcePoint" />
            <mxPoint x="107.6" y="94" as="targetPoint" />
          </mxGeometry>
        </mxCell>
        <mxCell id="jXatoXMq33lXqJdieAz0-184" style="rounded=0;orthogonalLoop=1;jettySize=auto;html=1;endArrow=block;endFill=1;" parent="1" source="jXatoXMq33lXqJdieAz0-182" target="jXatoXMq33lXqJdieAz0-163" edge="1">
          <mxGeometry relative="1" as="geometry">
            <mxPoint x="298.61" y="54.41" as="sourcePoint" />
            <mxPoint x="298.61" y="22.41" as="targetPoint" />
          </mxGeometry>
        </mxCell>
        <mxCell id="jXatoXMq33lXqJdieAz0-297" style="rounded=0;orthogonalLoop=1;jettySize=auto;html=1;endArrow=none;endFill=0;exitX=1;exitY=0.5;exitDx=0;exitDy=0;entryX=0.75;entryY=0;entryDx=0;entryDy=0;" parent="1" source="4g6vB5chk8NBOTjmCvvp-401" target="4g6vB5chk8NBOTjmCvvp-398" edge="1">
          <mxGeometry relative="1" as="geometry">
            <mxPoint x="77.59" y="32.91" as="sourcePoint" />
            <mxPoint x="-15.409999999999997" y="32.91" as="targetPoint" />
          </mxGeometry>
        </mxCell>
        <mxCell id="jXatoXMq33lXqJdieAz0-298" style="rounded=0;orthogonalLoop=1;jettySize=auto;html=1;endArrow=none;endFill=0;exitX=0;exitY=0.5;exitDx=0;exitDy=0;entryX=0.25;entryY=0;entryDx=0;entryDy=0;" parent="1" source="4g6vB5chk8NBOTjmCvvp-401" target="4g6vB5chk8NBOTjmCvvp-398" edge="1">
          <mxGeometry relative="1" as="geometry">
            <mxPoint x="3" y="-9.68" as="sourcePoint" />
            <mxPoint x="-13" y="95.32" as="targetPoint" />
          </mxGeometry>
        </mxCell>
        <mxCell id="AbAbU21SGLzE-sBosg72-1" style="rounded=0;orthogonalLoop=1;jettySize=auto;html=1;endArrow=block;endFill=1;strokeWidth=2;" parent="1" source="AbAbU21SGLzE-sBosg72-6" target="AbAbU21SGLzE-sBosg72-3" edge="1">
          <mxGeometry relative="1" as="geometry" />
        </mxCell>
        <mxCell id="AbAbU21SGLzE-sBosg72-2" value="&lt;span style=&quot;font-size: 20px;&quot;&gt;&lt;b&gt;LIKED_BY&lt;/b&gt;&lt;/span&gt;" style="edgeLabel;html=1;align=center;verticalAlign=middle;resizable=0;points=[];fontFamily=Helvetica;fontSize=11;fontColor=default;labelBackgroundColor=default;" parent="AbAbU21SGLzE-sBosg72-1" vertex="1" connectable="0">
          <mxGeometry x="-0.0681" relative="1" as="geometry">
            <mxPoint as="offset" />
          </mxGeometry>
        </mxCell>
        <mxCell id="AbAbU21SGLzE-sBosg72-3" value="&lt;b&gt;&lt;font style=&quot;font-size: 22px;&quot;&gt;Person&lt;/font&gt;&lt;/b&gt;" style="ellipse;whiteSpace=wrap;html=1;aspect=fixed;fillColor=#ffcccc;strokeColor=#36393d;" parent="1" vertex="1">
          <mxGeometry x="1606" y="350.76999999999987" width="144" height="144" as="geometry" />
        </mxCell>
        <mxCell id="AbAbU21SGLzE-sBosg72-4" value="&lt;b&gt;&lt;font style=&quot;font-size: 22px;&quot;&gt;Tag&lt;/font&gt;&lt;/b&gt;" style="ellipse;whiteSpace=wrap;html=1;aspect=fixed;fillColor=#cdeb8b;strokeColor=#36393d;" parent="1" vertex="1">
          <mxGeometry x="711" y="171.19999999999993" width="144" height="144" as="geometry" />
        </mxCell>
        <mxCell id="AbAbU21SGLzE-sBosg72-5" value="&lt;b&gt;&lt;font style=&quot;font-size: 22px;&quot;&gt;Post&lt;/font&gt;&lt;/b&gt;" style="ellipse;whiteSpace=wrap;html=1;aspect=fixed;fillColor=#ffcc99;strokeColor=#36393d;" parent="1" vertex="1">
          <mxGeometry x="711" y="510.4" width="144" height="144" as="geometry" />
        </mxCell>
        <mxCell id="AbAbU21SGLzE-sBosg72-6" value="&lt;b&gt;&lt;font style=&quot;font-size: 22px;&quot;&gt;Comment&lt;/font&gt;&lt;/b&gt;" style="ellipse;whiteSpace=wrap;html=1;aspect=fixed;fillColor=#cce5ff;strokeColor=#36393d;" parent="1" vertex="1">
          <mxGeometry x="1275" y="724.62" width="144" height="144" as="geometry" />
        </mxCell>
        <mxCell id="AbAbU21SGLzE-sBosg72-7" style="edgeStyle=orthogonalEdgeStyle;rounded=0;orthogonalLoop=1;jettySize=auto;html=1;elbow=vertical;strokeWidth=2;" parent="1" source="AbAbU21SGLzE-sBosg72-3" target="AbAbU21SGLzE-sBosg72-3" edge="1">
          <mxGeometry relative="1" as="geometry">
            <Array as="points">
              <mxPoint x="1960" y="422.77" />
            </Array>
          </mxGeometry>
        </mxCell>
        <mxCell id="AbAbU21SGLzE-sBosg72-8" value="&lt;span style=&quot;font-size: 20px;&quot;&gt;&lt;b&gt;FOLLOWS&lt;/b&gt;&lt;/span&gt;" style="edgeLabel;html=1;align=center;verticalAlign=middle;resizable=0;points=[];" parent="AbAbU21SGLzE-sBosg72-7" vertex="1" connectable="0">
          <mxGeometry x="0.5243" relative="1" as="geometry">
            <mxPoint as="offset" />
          </mxGeometry>
        </mxCell>
        <mxCell id="AbAbU21SGLzE-sBosg72-9" style="rounded=0;orthogonalLoop=1;jettySize=auto;html=1;endArrow=block;endFill=1;strokeWidth=2;edgeStyle=orthogonalEdgeStyle;" parent="1" source="AbAbU21SGLzE-sBosg72-6" target="AbAbU21SGLzE-sBosg72-6" edge="1">
          <mxGeometry relative="1" as="geometry">
            <mxPoint x="1235.77" y="527.9899999999999" as="sourcePoint" />
            <mxPoint x="1097.77" y="754.9899999999999" as="targetPoint" />
            <Array as="points">
              <mxPoint x="1632" y="795.62" />
            </Array>
          </mxGeometry>
        </mxCell>
        <mxCell id="AbAbU21SGLzE-sBosg72-10" value="&lt;font style=&quot;font-size: 20px;&quot;&gt;&lt;b&gt;PARENT_OF&lt;/b&gt;&lt;/font&gt;" style="edgeLabel;html=1;align=center;verticalAlign=middle;resizable=0;points=[];fontFamily=Helvetica;fontSize=11;fontColor=default;labelBackgroundColor=default;" parent="AbAbU21SGLzE-sBosg72-9" vertex="1" connectable="0">
          <mxGeometry x="-0.0681" relative="1" as="geometry">
            <mxPoint x="-98" y="20" as="offset" />
          </mxGeometry>
        </mxCell>
        <mxCell id="AbAbU21SGLzE-sBosg72-11" style="rounded=0;orthogonalLoop=1;jettySize=auto;html=1;endArrow=block;endFill=1;strokeWidth=2;" parent="1" source="AbAbU21SGLzE-sBosg72-6" target="AbAbU21SGLzE-sBosg72-5" edge="1">
          <mxGeometry relative="1" as="geometry">
            <mxPoint x="1176.74" y="619.17" as="sourcePoint" />
            <mxPoint x="1038.74" y="846.17" as="targetPoint" />
          </mxGeometry>
        </mxCell>
        <mxCell id="AbAbU21SGLzE-sBosg72-12" value="&lt;span style=&quot;font-size: 20px;&quot;&gt;&lt;b&gt;COMMENT_ON&lt;/b&gt;&lt;/span&gt;" style="edgeLabel;html=1;align=center;verticalAlign=middle;resizable=0;points=[];fontFamily=Helvetica;fontSize=11;fontColor=default;labelBackgroundColor=default;" parent="AbAbU21SGLzE-sBosg72-11" vertex="1" connectable="0">
          <mxGeometry x="-0.0681" relative="1" as="geometry">
            <mxPoint as="offset" />
          </mxGeometry>
        </mxCell>
        <mxCell id="AbAbU21SGLzE-sBosg72-13" style="rounded=0;orthogonalLoop=1;jettySize=auto;html=1;endArrow=block;endFill=1;strokeWidth=2;" parent="1" source="AbAbU21SGLzE-sBosg72-6" target="AbAbU21SGLzE-sBosg72-3" edge="1">
          <mxGeometry relative="1" as="geometry">
            <mxPoint x="1245" y="670.62" as="sourcePoint" />
            <mxPoint x="936" y="670.62" as="targetPoint" />
            <Array as="points">
              <mxPoint x="1312" y="596.77" />
            </Array>
          </mxGeometry>
        </mxCell>
        <mxCell id="AbAbU21SGLzE-sBosg72-14" value="&lt;span style=&quot;font-size: 20px;&quot;&gt;&lt;b&gt;COMMENTED_BY&lt;/b&gt;&lt;/span&gt;" style="edgeLabel;html=1;align=center;verticalAlign=middle;resizable=0;points=[];fontFamily=Helvetica;fontSize=11;fontColor=default;labelBackgroundColor=default;" parent="AbAbU21SGLzE-sBosg72-13" vertex="1" connectable="0">
          <mxGeometry x="-0.0681" relative="1" as="geometry">
            <mxPoint x="-69" y="34" as="offset" />
          </mxGeometry>
        </mxCell>
        <mxCell id="AbAbU21SGLzE-sBosg72-15" style="rounded=0;orthogonalLoop=1;jettySize=auto;html=1;endArrow=block;endFill=1;strokeWidth=2;" parent="1" source="AbAbU21SGLzE-sBosg72-3" target="AbAbU21SGLzE-sBosg72-5" edge="1">
          <mxGeometry relative="1" as="geometry">
            <mxPoint x="1107" y="531.62" as="sourcePoint" />
            <mxPoint x="798" y="531.62" as="targetPoint" />
          </mxGeometry>
        </mxCell>
        <mxCell id="AbAbU21SGLzE-sBosg72-16" value="&lt;span style=&quot;font-size: 20px;&quot;&gt;&lt;b&gt;POSTED&lt;/b&gt;&lt;/span&gt;" style="edgeLabel;html=1;align=center;verticalAlign=middle;resizable=0;points=[];fontFamily=Helvetica;fontSize=11;fontColor=default;labelBackgroundColor=default;" parent="AbAbU21SGLzE-sBosg72-15" vertex="1" connectable="0">
          <mxGeometry x="-0.0681" relative="1" as="geometry">
            <mxPoint as="offset" />
          </mxGeometry>
        </mxCell>
        <mxCell id="AbAbU21SGLzE-sBosg72-17" style="rounded=0;orthogonalLoop=1;jettySize=auto;html=1;endArrow=block;endFill=1;strokeWidth=2;" parent="1" source="AbAbU21SGLzE-sBosg72-5" target="AbAbU21SGLzE-sBosg72-4" edge="1">
          <mxGeometry relative="1" as="geometry">
            <mxPoint x="740.8899999999999" y="573.42" as="sourcePoint" />
            <mxPoint x="819.8899999999999" y="340.41999999999996" as="targetPoint" />
          </mxGeometry>
        </mxCell>
        <mxCell id="AbAbU21SGLzE-sBosg72-18" value="&lt;span style=&quot;font-size: 20px;&quot;&gt;&lt;b&gt;HAS_TAG&lt;/b&gt;&lt;/span&gt;" style="edgeLabel;html=1;align=center;verticalAlign=middle;resizable=0;points=[];fontFamily=Helvetica;fontSize=11;fontColor=default;labelBackgroundColor=default;" parent="AbAbU21SGLzE-sBosg72-17" vertex="1" connectable="0">
          <mxGeometry x="-0.0681" relative="1" as="geometry">
            <mxPoint as="offset" />
          </mxGeometry>
        </mxCell>
        <mxCell id="AbAbU21SGLzE-sBosg72-19" style="rounded=0;orthogonalLoop=1;jettySize=auto;html=1;endArrow=block;endFill=1;strokeWidth=2;" parent="1" source="AbAbU21SGLzE-sBosg72-5" target="AbAbU21SGLzE-sBosg72-3" edge="1">
          <mxGeometry relative="1" as="geometry">
            <mxPoint x="871.1100000000001" y="480.17999999999995" as="sourcePoint" />
            <mxPoint x="1624.11" y="346.17999999999995" as="targetPoint" />
            <Array as="points">
              <mxPoint x="1274" y="353.77" />
            </Array>
          </mxGeometry>
        </mxCell>
        <mxCell id="AbAbU21SGLzE-sBosg72-20" value="&lt;span style=&quot;font-size: 20px;&quot;&gt;&lt;b&gt;LIKED_BY&lt;/b&gt;&lt;/span&gt;" style="edgeLabel;html=1;align=center;verticalAlign=middle;resizable=0;points=[];fontFamily=Helvetica;fontSize=11;fontColor=default;labelBackgroundColor=default;" parent="AbAbU21SGLzE-sBosg72-19" vertex="1" connectable="0">
          <mxGeometry x="-0.0681" relative="1" as="geometry">
            <mxPoint x="31" y="-13" as="offset" />
          </mxGeometry>
        </mxCell>
        <mxCell id="AbAbU21SGLzE-sBosg72-21" value="&lt;span style=&quot;font-size: 22px;&quot;&gt;&lt;b&gt;District&lt;/b&gt;&lt;/span&gt;" style="ellipse;whiteSpace=wrap;html=1;aspect=fixed;fillColor=#d0cee2;strokeColor=#56517e;" parent="1" vertex="1">
          <mxGeometry x="1609" y="126.79999999999995" width="144" height="144" as="geometry" />
        </mxCell>
        <mxCell id="AbAbU21SGLzE-sBosg72-22" style="rounded=0;orthogonalLoop=1;jettySize=auto;html=1;endArrow=block;endFill=1;strokeWidth=2;" parent="1" source="AbAbU21SGLzE-sBosg72-3" target="AbAbU21SGLzE-sBosg72-29" edge="1">
          <mxGeometry relative="1" as="geometry">
            <mxPoint x="1690.63" y="210.65999999999997" as="sourcePoint" />
            <mxPoint x="1570.63" y="416.65999999999997" as="targetPoint" />
          </mxGeometry>
        </mxCell>
        <mxCell id="AbAbU21SGLzE-sBosg72-23" value="&lt;span style=&quot;font-size: 20px;&quot;&gt;&lt;b&gt;BORN_IN&lt;/b&gt;&lt;/span&gt;" style="edgeLabel;html=1;align=center;verticalAlign=middle;resizable=0;points=[];fontFamily=Helvetica;fontSize=11;fontColor=default;labelBackgroundColor=default;" parent="AbAbU21SGLzE-sBosg72-22" vertex="1" connectable="0">
          <mxGeometry x="-0.0681" relative="1" as="geometry">
            <mxPoint as="offset" />
          </mxGeometry>
        </mxCell>
        <mxCell id="AbAbU21SGLzE-sBosg72-24" value="&lt;span style=&quot;font-size: 22px;&quot;&gt;&lt;b&gt;City&lt;/b&gt;&lt;/span&gt;" style="ellipse;whiteSpace=wrap;html=1;aspect=fixed;fillColor=#eeeeee;strokeColor=#36393d;" parent="1" vertex="1">
          <mxGeometry x="1959" y="126.79999999999995" width="144" height="144" as="geometry" />
        </mxCell>
        <mxCell id="AbAbU21SGLzE-sBosg72-25" style="rounded=0;orthogonalLoop=1;jettySize=auto;html=1;endArrow=block;endFill=1;strokeWidth=2;" parent="1" source="AbAbU21SGLzE-sBosg72-3" target="AbAbU21SGLzE-sBosg72-24" edge="1">
          <mxGeometry relative="1" as="geometry">
            <mxPoint x="1811" y="358.54999999999995" as="sourcePoint" />
            <mxPoint x="1811" y="209.54999999999995" as="targetPoint" />
          </mxGeometry>
        </mxCell>
        <mxCell id="AbAbU21SGLzE-sBosg72-26" value="&lt;span style=&quot;font-size: 20px;&quot;&gt;&lt;b&gt;LIVES_IN&lt;/b&gt;&lt;/span&gt;" style="edgeLabel;html=1;align=center;verticalAlign=middle;resizable=0;points=[];fontFamily=Helvetica;fontSize=11;fontColor=default;labelBackgroundColor=default;" parent="AbAbU21SGLzE-sBosg72-25" vertex="1" connectable="0">
          <mxGeometry x="-0.0681" relative="1" as="geometry">
            <mxPoint as="offset" />
          </mxGeometry>
        </mxCell>
        <mxCell id="AbAbU21SGLzE-sBosg72-27" style="rounded=0;orthogonalLoop=1;jettySize=auto;html=1;endArrow=block;endFill=1;strokeWidth=2;" parent="1" source="AbAbU21SGLzE-sBosg72-24" target="AbAbU21SGLzE-sBosg72-21" edge="1">
          <mxGeometry relative="1" as="geometry">
            <mxPoint x="1626.39" y="208.9899999999999" as="sourcePoint" />
            <mxPoint x="1829.3899999999999" y="2.990000000000009" as="targetPoint" />
          </mxGeometry>
        </mxCell>
        <mxCell id="AbAbU21SGLzE-sBosg72-28" value="&lt;span style=&quot;font-size: 20px;&quot;&gt;&lt;b&gt;CITY_OF&lt;/b&gt;&lt;/span&gt;" style="edgeLabel;html=1;align=center;verticalAlign=middle;resizable=0;points=[];fontFamily=Helvetica;fontSize=11;fontColor=default;labelBackgroundColor=default;" parent="AbAbU21SGLzE-sBosg72-27" vertex="1" connectable="0">
          <mxGeometry x="-0.0681" relative="1" as="geometry">
            <mxPoint as="offset" />
          </mxGeometry>
        </mxCell>
        <mxCell id="AbAbU21SGLzE-sBosg72-29" value="&lt;span style=&quot;font-size: 22px;&quot;&gt;&lt;b&gt;Country&lt;/b&gt;&lt;/span&gt;" style="ellipse;whiteSpace=wrap;html=1;aspect=fixed;fillColor=#ffff88;strokeColor=#36393d;" parent="1" vertex="1">
          <mxGeometry x="1242" y="122.79999999999995" width="144" height="144" as="geometry" />
        </mxCell>
        <mxCell id="AbAbU21SGLzE-sBosg72-30" style="rounded=0;orthogonalLoop=1;jettySize=auto;html=1;endArrow=block;endFill=1;strokeWidth=2;" parent="1" source="AbAbU21SGLzE-sBosg72-21" target="AbAbU21SGLzE-sBosg72-29" edge="1">
          <mxGeometry relative="1" as="geometry">
            <mxPoint x="1344.63" y="51.629999999999995" as="sourcePoint" />
            <mxPoint x="1127.63" y="-48.370000000000005" as="targetPoint" />
          </mxGeometry>
        </mxCell>
        <mxCell id="AbAbU21SGLzE-sBosg72-31" value="&lt;span style=&quot;font-size: 20px;&quot;&gt;&lt;b&gt;DISTRICT_OF&lt;/b&gt;&lt;/span&gt;" style="edgeLabel;html=1;align=center;verticalAlign=middle;resizable=0;points=[];fontFamily=Helvetica;fontSize=11;fontColor=default;labelBackgroundColor=default;" parent="AbAbU21SGLzE-sBosg72-30" vertex="1" connectable="0">
          <mxGeometry x="-0.0681" relative="1" as="geometry">
            <mxPoint as="offset" />
          </mxGeometry>
        </mxCell>
        <mxCell id="4g6vB5chk8NBOTjmCvvp-182" value="" style="rounded=0;whiteSpace=wrap;html=1;fontFamily=Helvetica;fontSize=11;fontColor=default;align=left;fillColor=#454545;container=0;shadow=0;labelBorderColor=none;" parent="1" vertex="1">
          <mxGeometry x="-2240" y="-153" width="21" height="844" as="geometry" />
        </mxCell>
        <mxCell id="4g6vB5chk8NBOTjmCvvp-184" value="" style="rounded=0;whiteSpace=wrap;html=1;fontFamily=Helvetica;fontSize=11;fontColor=default;align=left;fillColor=#454545;container=0;shadow=0;labelBorderColor=none;" parent="1" vertex="1">
          <mxGeometry x="-1524" y="-153" width="21" height="844" as="geometry" />
        </mxCell>
        <mxCell id="4g6vB5chk8NBOTjmCvvp-187" value="" style="rounded=0;whiteSpace=wrap;html=1;fontFamily=Helvetica;fontSize=11;fontColor=default;align=left;fillColor=#454545;container=0;shadow=0;labelBorderColor=none;" parent="1" vertex="1">
          <mxGeometry x="-1686" y="-153" width="21" height="844" as="geometry" />
        </mxCell>
        <mxCell id="4g6vB5chk8NBOTjmCvvp-188" value="&lt;b style=&quot;border-color: var(--border-color);&quot;&gt;Schema&lt;/b&gt;" style="whiteSpace=wrap;html=1;align=center;container=0;shadow=0;labelBorderColor=none;" parent="1" vertex="1">
          <mxGeometry x="-2219" y="-153" width="533" height="39.25" as="geometry" />
        </mxCell>
        <mxCell id="4g6vB5chk8NBOTjmCvvp-189" value="&lt;b style=&quot;border-color: var(--border-color);&quot;&gt;Table&lt;/b&gt;" style="whiteSpace=wrap;html=1;align=center;container=0;shadow=0;labelBorderColor=none;" parent="1" vertex="1">
          <mxGeometry x="-2340" y="-153" width="100" height="39.25" as="geometry" />
        </mxCell>
        <mxCell id="4g6vB5chk8NBOTjmCvvp-190" value="&lt;b style=&quot;border-color: var(--border-color);&quot;&gt;PK&lt;/b&gt;" style="whiteSpace=wrap;html=1;align=center;container=0;shadow=0;labelBorderColor=none;" parent="1" vertex="1">
          <mxGeometry x="-1665" y="-153" width="141" height="39.25" as="geometry" />
        </mxCell>
        <mxCell id="4g6vB5chk8NBOTjmCvvp-191" value="&lt;b style=&quot;border-color: var(--border-color);&quot;&gt;&lt;font color=&quot;#3399ff&quot;&gt;FK&lt;/font&gt;&lt;/b&gt;" style="whiteSpace=wrap;html=1;align=center;container=0;shadow=0;labelBorderColor=none;" parent="1" vertex="1">
          <mxGeometry x="-1503" y="-153" width="288" height="39.25" as="geometry" />
        </mxCell>
        <mxCell id="4g6vB5chk8NBOTjmCvvp-192" value="&lt;b style=&quot;border-color: var(--border-color);&quot;&gt;&lt;font color=&quot;#00994d&quot;&gt;Index&lt;/font&gt;&lt;/b&gt;" style="whiteSpace=wrap;html=1;align=center;container=0;shadow=0;labelBorderColor=none;" parent="1" vertex="1">
          <mxGeometry x="-1194" y="-153" width="244" height="39.43589743589743" as="geometry" />
        </mxCell>
        <mxCell id="4g6vB5chk8NBOTjmCvvp-193" value="" style="rounded=0;whiteSpace=wrap;html=1;fontFamily=Helvetica;fontSize=11;fontColor=default;align=left;fillColor=#454545;container=0;shadow=0;labelBorderColor=none;" parent="1" vertex="1">
          <mxGeometry x="-1215" y="-152.96" width="21" height="844.96" as="geometry" />
        </mxCell>
        <mxCell id="4g6vB5chk8NBOTjmCvvp-288" value="&lt;b style=&quot;border-color: var(--border-color);&quot;&gt;Notes&lt;/b&gt;" style="whiteSpace=wrap;html=1;align=center;container=0;shadow=0;labelBorderColor=none;" parent="1" vertex="1">
          <mxGeometry x="-950" y="-153" width="244" height="39.43589743589743" as="geometry" />
        </mxCell>
        <mxCell id="4g6vB5chk8NBOTjmCvvp-331" value="" style="rounded=0;whiteSpace=wrap;html=1;fontFamily=Helvetica;fontSize=11;fontColor=default;align=left;fillColor=#454545;container=0;shadow=0;labelBorderColor=none;" parent="1" vertex="1">
          <mxGeometry x="-2340" y="340.66" width="1634" height="13.15" as="geometry" />
        </mxCell>
        <mxCell id="4g6vB5chk8NBOTjmCvvp-332" value="&lt;b style=&quot;border-color: var(--border-color);&quot;&gt;&lt;font style=&quot;font-size: 17px;&quot; color=&quot;#3399ff&quot;&gt;Relations&lt;/font&gt;&lt;/b&gt;" style="whiteSpace=wrap;html=1;align=center;container=0;shadow=0;labelBorderColor=none;" parent="1" vertex="1">
          <mxGeometry x="-2340" y="353.81" width="1634" height="27.61" as="geometry" />
        </mxCell>
        <mxCell id="4g6vB5chk8NBOTjmCvvp-333" value="&lt;b style=&quot;border-color: var(--border-color); color: rgb(255, 51, 51);&quot;&gt;&lt;font style=&quot;font-size: 17px;&quot;&gt;Entities&lt;/font&gt;&lt;/b&gt;" style="whiteSpace=wrap;html=1;align=center;container=0;shadow=0;labelBorderColor=none;" parent="1" vertex="1">
          <mxGeometry x="-2340" y="-100.61" width="1634" height="27.61" as="geometry" />
        </mxCell>
        <mxCell id="4g6vB5chk8NBOTjmCvvp-334" value="" style="rounded=0;whiteSpace=wrap;html=1;fontFamily=Helvetica;fontSize=11;fontColor=default;align=left;fillColor=#454545;container=0;shadow=0;labelBorderColor=none;" parent="1" vertex="1">
          <mxGeometry x="-2340" y="-113.75" width="1634" height="13.15" as="geometry" />
        </mxCell>
        <mxCell id="4g6vB5chk8NBOTjmCvvp-302" value="&lt;div style=&quot;&quot;&gt;&lt;div&gt;&lt;span style=&quot;font-size: 11px;&quot;&gt;&lt;b&gt;&lt;br&gt;&lt;/b&gt;&lt;/span&gt;&lt;/div&gt;&lt;/div&gt;" style="whiteSpace=wrap;html=1;align=left;container=0;glass=0;shadow=0;labelBorderColor=none;" parent="1" vertex="1">
          <mxGeometry x="-950" y="-72.80538461538491" width="244.00000000000003" height="59.153846153846146" as="geometry" />
        </mxCell>
        <mxCell id="4g6vB5chk8NBOTjmCvvp-204" value="&lt;b style=&quot;border-color: var(--border-color);&quot;&gt;person&lt;/b&gt;" style="whiteSpace=wrap;html=1;align=center;container=0;shadow=0;labelBorderColor=none;" parent="1" vertex="1">
          <mxGeometry x="-2340" y="-72.99735042735063" width="100" height="59.153846153846146" as="geometry" />
        </mxCell>
        <mxCell id="4g6vB5chk8NBOTjmCvvp-205" value="&lt;font style=&quot;font-size: 12px;&quot;&gt;(&lt;b&gt;person&lt;/b&gt;&lt;b style=&quot;border-color: var(--border-color);&quot;&gt;_id&lt;/b&gt;, &lt;b&gt;&lt;font style=&quot;font-size: 12px;&quot; color=&quot;#00994d&quot;&gt;username&lt;/font&gt;&lt;/b&gt;, first_name, last_name, &lt;b&gt;&lt;font style=&quot;font-size: 12px;&quot; color=&quot;#00994d&quot;&gt;email&lt;/font&gt;&lt;/b&gt;, password, birthdate, created_at, &lt;b&gt;&lt;font color=&quot;#3399ff&quot;&gt;born_country_id&lt;/font&gt;&lt;/b&gt;&lt;b&gt;&lt;font color=&quot;#3399ff&quot;&gt;, city_name, district_name, country_id&lt;/font&gt;&lt;/b&gt;)&lt;/font&gt;" style="whiteSpace=wrap;html=1;align=left;container=0;spacingLeft=5;shadow=0;labelBorderColor=none;" parent="1" vertex="1">
          <mxGeometry x="-2219" y="-73" width="534" height="59.15" as="geometry" />
        </mxCell>
        <mxCell id="4g6vB5chk8NBOTjmCvvp-206" value="&lt;div style=&quot;text-align: center;&quot;&gt;&lt;div style=&quot;text-align: left;&quot;&gt;&lt;ul style=&quot;line-height: 18px;&quot;&gt;&lt;li&gt;&lt;span style=&quot;background-color: initial;&quot;&gt;&lt;b&gt;&lt;font color=&quot;#3399ff&quot;&gt;born_country_id&amp;nbsp;&lt;/font&gt;&lt;/b&gt;references&amp;nbsp;&lt;/span&gt;&lt;b&gt;country&lt;/b&gt;&lt;/li&gt;&lt;li style=&quot;border-color: var(--border-color);&quot;&gt;&lt;font style=&quot;&quot; color=&quot;#3399ff&quot;&gt;&lt;b&gt;city_name,&amp;nbsp;&lt;b style=&quot;color: rgb(0, 0, 0);&quot;&gt;&lt;font color=&quot;#3399ff&quot;&gt;district_name,&lt;/font&gt;&lt;/b&gt;&amp;nbsp;country_id&amp;nbsp;&lt;br&gt;&lt;/b&gt;&lt;/font&gt;references &lt;b&gt;city&lt;/b&gt;&lt;br&gt;&lt;/li&gt;&lt;/ul&gt;&lt;/div&gt;&lt;/div&gt;" style="whiteSpace=wrap;html=1;align=left;container=0;glass=0;shadow=0;labelBorderColor=none;" parent="1" vertex="1">
          <mxGeometry x="-1503" y="-73" width="288" height="59.15" as="geometry" />
        </mxCell>
        <mxCell id="4g6vB5chk8NBOTjmCvvp-207" value="&lt;b style=&quot;border-color: var(--border-color); font-size: 11px; text-align: left;&quot;&gt;person_id&lt;/b&gt;" style="whiteSpace=wrap;html=1;align=center;container=0;shadow=0;labelBorderColor=none;" parent="1" vertex="1">
          <mxGeometry x="-1665" y="-72.9973504273506" width="141" height="59.153846153846146" as="geometry" />
        </mxCell>
        <mxCell id="4g6vB5chk8NBOTjmCvvp-208" value="&lt;div style=&quot;&quot;&gt;&lt;ul style=&quot;line-height: 150%;&quot;&gt;&lt;li&gt;&lt;span style=&quot;background-color: initial;&quot;&gt;&lt;b style=&quot;border-color: var(--border-color); font-size: 11px;&quot;&gt;username&amp;nbsp;&lt;/b&gt;&lt;b style=&quot;border-color: var(--border-color); color: rgb(0, 153, 77); font-size: 11px;&quot;&gt;(unique)&lt;/b&gt;&lt;/span&gt;&lt;/li&gt;&lt;li&gt;&lt;span style=&quot;background-color: initial;&quot;&gt;&lt;b style=&quot;border-color: var(--border-color); font-size: 11px;&quot;&gt;email&amp;nbsp;&lt;/b&gt;&lt;b style=&quot;border-color: var(--border-color); color: rgb(0, 153, 77); font-size: 11px;&quot;&gt;(unique)&lt;/b&gt;&lt;/span&gt;&lt;/li&gt;&lt;/ul&gt;&lt;/div&gt;" style="whiteSpace=wrap;html=1;align=left;container=0;glass=0;shadow=0;labelBorderColor=none;" parent="1" vertex="1">
          <mxGeometry x="-1194" y="-72.80538461538491" width="244.00000000000003" height="59.153846153846146" as="geometry" />
        </mxCell>
        <mxCell id="4g6vB5chk8NBOTjmCvvp-301" value="&lt;div style=&quot;text-align: center;&quot;&gt;&lt;div&gt;&lt;font color=&quot;#3399ff&quot;&gt;&lt;b&gt;&lt;br&gt;&lt;/b&gt;&lt;/font&gt;&lt;/div&gt;&lt;/div&gt;" style="whiteSpace=wrap;html=1;align=left;container=0;glass=0;shadow=0;labelBorderColor=none;" parent="1" vertex="1">
          <mxGeometry x="-950" y="-13.801196581196557" width="244" height="59.153846153846146" as="geometry" />
        </mxCell>
        <mxCell id="4g6vB5chk8NBOTjmCvvp-198" value="&lt;b style=&quot;border-color: var(--border-color);&quot;&gt;post&lt;/b&gt;" style="whiteSpace=wrap;html=1;align=center;container=0;shadow=0;labelBorderColor=none;" parent="1" vertex="1">
          <mxGeometry x="-2340" y="-14.00119658119658" width="100" height="59.153846153846146" as="geometry" />
        </mxCell>
        <mxCell id="4g6vB5chk8NBOTjmCvvp-199" value="&lt;font style=&quot;font-size: 12px;&quot;&gt;(&lt;b&gt;post_id&lt;/b&gt;, content, created_at, &lt;b style=&quot;&quot;&gt;&lt;font style=&quot;font-size: 12px;&quot; color=&quot;#3399ff&quot;&gt;person_id&lt;/font&gt;&lt;/b&gt;)&lt;/font&gt;" style="html=1;align=left;container=0;whiteSpace=wrap;labelBorderColor=none;labelBackgroundColor=none;spacingLeft=5;shadow=0;" parent="1" vertex="1">
          <mxGeometry x="-2219" y="-13.999999999999972" width="534" height="59.15" as="geometry" />
        </mxCell>
        <mxCell id="4g6vB5chk8NBOTjmCvvp-200" value="&lt;b style=&quot;border-color: var(--border-color); font-size: 11px; text-align: left;&quot;&gt;post_id&lt;/b&gt;" style="whiteSpace=wrap;html=1;align=center;container=0;shadow=0;labelBorderColor=none;" parent="1" vertex="1">
          <mxGeometry x="-1665" y="-14.00119658119658" width="141" height="59.153846153846146" as="geometry" />
        </mxCell>
        <mxCell id="4g6vB5chk8NBOTjmCvvp-201" value="&lt;div style=&quot;text-align: center;&quot;&gt;&lt;ul style=&quot;text-align: left; line-height: 18px;&quot;&gt;&lt;li style=&quot;border-color: var(--border-color);&quot;&gt;&lt;b style=&quot;border-color: var(--border-color); background-color: initial;&quot;&gt;&lt;font style=&quot;border-color: var(--border-color);&quot; color=&quot;#3399ff&quot;&gt;person_id&amp;nbsp;&lt;/font&gt;&lt;/b&gt;references&amp;nbsp;&lt;b&gt;person&lt;/b&gt;&lt;/li&gt;&lt;/ul&gt;&lt;/div&gt;" style="whiteSpace=wrap;html=1;align=left;container=0;glass=0;shadow=0;labelBorderColor=none;" parent="1" vertex="1">
          <mxGeometry x="-1503" y="-14" width="288" height="59.15" as="geometry" />
        </mxCell>
        <mxCell id="4g6vB5chk8NBOTjmCvvp-202" value="&lt;div style=&quot;text-align: center;&quot;&gt;&lt;div&gt;&lt;font color=&quot;#3399ff&quot;&gt;&lt;b&gt;&lt;br&gt;&lt;/b&gt;&lt;/font&gt;&lt;/div&gt;&lt;/div&gt;" style="whiteSpace=wrap;html=1;align=left;container=0;glass=0;shadow=0;labelBorderColor=none;" parent="1" vertex="1">
          <mxGeometry x="-1194" y="-13.801196581196557" width="244" height="59.153846153846146" as="geometry" />
        </mxCell>
        <mxCell id="4g6vB5chk8NBOTjmCvvp-304" value="&lt;div style=&quot;text-align: center;&quot;&gt;&lt;div&gt;&lt;font color=&quot;#3399ff&quot;&gt;&lt;b&gt;&lt;br&gt;&lt;/b&gt;&lt;/font&gt;&lt;/div&gt;&lt;/div&gt;" style="whiteSpace=wrap;html=1;align=left;container=0;glass=0;shadow=0;labelBorderColor=none;" parent="1" vertex="1">
          <mxGeometry x="-950" y="45.55034188034175" width="244" height="59.153846153846146" as="geometry" />
        </mxCell>
        <mxCell id="4g6vB5chk8NBOTjmCvvp-216" value="&lt;b style=&quot;border-color: var(--border-color);&quot;&gt;comment&lt;/b&gt;" style="whiteSpace=wrap;html=1;align=center;container=0;shadow=0;labelBorderColor=none;" parent="1" vertex="1">
          <mxGeometry x="-2340" y="45.35034188034178" width="100" height="59.153846153846146" as="geometry" />
        </mxCell>
        <mxCell id="4g6vB5chk8NBOTjmCvvp-217" value="&lt;font style=&quot;font-size: 12px;&quot;&gt;&lt;span style=&quot;border-color: var(--border-color);&quot;&gt;(&lt;b style=&quot;&quot;&gt;comment&lt;/b&gt;&lt;/span&gt;&lt;b style=&quot;border-color: var(--border-color);&quot;&gt;_id&lt;/b&gt;, &lt;font style=&quot;font-size: 12px;&quot;&gt;msg, created_at,&amp;nbsp;&lt;b&gt;&lt;font style=&quot;font-size: 12px;&quot; color=&quot;#3399ff&quot;&gt;person&lt;/font&gt;&lt;/b&gt;&lt;b&gt;&lt;font style=&quot;font-size: 12px;&quot; color=&quot;#3399ff&quot;&gt;_id&lt;/font&gt;&lt;/b&gt;, &lt;b&gt;&lt;font style=&quot;font-size: 12px;&quot; color=&quot;#3399ff&quot;&gt;post_id&lt;/font&gt;&lt;/b&gt;&lt;/font&gt;)&lt;/font&gt;" style="whiteSpace=wrap;html=1;align=left;container=0;spacingLeft=5;shadow=0;labelBorderColor=none;" parent="1" vertex="1">
          <mxGeometry x="-2219" y="45.35000000000003" width="534" height="59.15" as="geometry" />
        </mxCell>
        <mxCell id="4g6vB5chk8NBOTjmCvvp-218" value="&lt;b style=&quot;border-color: var(--border-color); font-size: 11px; text-align: left;&quot;&gt;comment_id&lt;/b&gt;" style="whiteSpace=wrap;html=1;align=center;container=0;shadow=0;labelBorderColor=none;" parent="1" vertex="1">
          <mxGeometry x="-1665" y="45.35034188034178" width="141" height="59.153846153846146" as="geometry" />
        </mxCell>
        <mxCell id="4g6vB5chk8NBOTjmCvvp-219" value="&lt;div style=&quot;text-align: center;&quot;&gt;&lt;div&gt;&lt;ul style=&quot;text-align: left; line-height: 18px;&quot;&gt;&lt;li&gt;&lt;b style=&quot;background-color: initial; border-color: var(--border-color);&quot;&gt;&lt;font style=&quot;border-color: var(--border-color);&quot; color=&quot;#3399ff&quot;&gt;&lt;b style=&quot;color: rgb(0, 0, 0); background-color: initial; border-color: var(--border-color);&quot;&gt;&lt;font style=&quot;border-color: var(--border-color);&quot; color=&quot;#3399ff&quot;&gt;person&lt;/font&gt;&lt;/b&gt;_id&amp;nbsp;&lt;/font&gt;&lt;/b&gt;&lt;span style=&quot;background-color: initial;&quot;&gt;references&amp;nbsp;&lt;/span&gt;&lt;b&gt;person&lt;/b&gt;&lt;/li&gt;&lt;li style=&quot;border-color: var(--border-color);&quot;&gt;&lt;b style=&quot;border-color: var(--border-color); background-color: initial;&quot;&gt;&lt;font style=&quot;border-color: var(--border-color);&quot; color=&quot;#3399ff&quot;&gt;post_id&amp;nbsp;&lt;/font&gt;&lt;/b&gt;references&amp;nbsp;&lt;b style=&quot;border-color: var(--border-color); background-color: initial;&quot;&gt;post&lt;/b&gt;&lt;/li&gt;&lt;/ul&gt;&lt;/div&gt;&lt;/div&gt;" style="whiteSpace=wrap;html=1;align=left;container=0;glass=0;shadow=0;labelBorderColor=none;" parent="1" vertex="1">
          <mxGeometry x="-1503" y="45.35" width="288" height="59.15" as="geometry" />
        </mxCell>
        <mxCell id="4g6vB5chk8NBOTjmCvvp-220" value="&lt;div style=&quot;text-align: center;&quot;&gt;&lt;div&gt;&lt;font color=&quot;#3399ff&quot;&gt;&lt;b&gt;&lt;br&gt;&lt;/b&gt;&lt;/font&gt;&lt;/div&gt;&lt;/div&gt;" style="whiteSpace=wrap;html=1;align=left;container=0;glass=0;shadow=0;labelBorderColor=none;" parent="1" vertex="1">
          <mxGeometry x="-1194" y="45.55034188034175" width="244" height="59.153846153846146" as="geometry" />
        </mxCell>
        <mxCell id="NvgXYQUHseZZ3Qn02gF4-30" value="&lt;div style=&quot;text-align: center;&quot;&gt;&lt;div&gt;&lt;font color=&quot;#3399ff&quot;&gt;&lt;b&gt;&lt;br&gt;&lt;/b&gt;&lt;/font&gt;&lt;/div&gt;&lt;/div&gt;" style="whiteSpace=wrap;html=1;align=left;container=0;glass=0;shadow=0;labelBorderColor=none;" parent="1" vertex="1">
          <mxGeometry x="-950" y="104.5503418803417" width="244" height="59.153846153846146" as="geometry" />
        </mxCell>
        <mxCell id="NvgXYQUHseZZ3Qn02gF4-31" value="&lt;b style=&quot;border-color: var(--border-color);&quot;&gt;tag&lt;/b&gt;" style="whiteSpace=wrap;html=1;align=center;container=0;shadow=0;labelBorderColor=none;" parent="1" vertex="1">
          <mxGeometry x="-2340" y="104.35034188034172" width="100" height="59.153846153846146" as="geometry" />
        </mxCell>
        <mxCell id="NvgXYQUHseZZ3Qn02gF4-32" value="&lt;font style=&quot;font-size: 12px;&quot;&gt;&lt;span style=&quot;border-color: var(--border-color);&quot;&gt;(&lt;b style=&quot;&quot;&gt;tag&lt;/b&gt;&lt;/span&gt;&lt;b style=&quot;border-color: var(--border-color);&quot;&gt;_id&lt;/b&gt;, &lt;font style=&quot;font-size: 12px;&quot;&gt;name&lt;/font&gt;)&lt;/font&gt;" style="whiteSpace=wrap;html=1;align=left;container=0;spacingLeft=5;shadow=0;labelBorderColor=none;" parent="1" vertex="1">
          <mxGeometry x="-2219" y="104.34999999999997" width="534" height="59.15" as="geometry" />
        </mxCell>
        <mxCell id="NvgXYQUHseZZ3Qn02gF4-33" value="&lt;b style=&quot;border-color: var(--border-color); font-size: 11px; text-align: left;&quot;&gt;tag_id&lt;/b&gt;" style="whiteSpace=wrap;html=1;align=center;container=0;shadow=0;labelBorderColor=none;" parent="1" vertex="1">
          <mxGeometry x="-1665" y="104.35034188034172" width="141" height="59.153846153846146" as="geometry" />
        </mxCell>
        <mxCell id="NvgXYQUHseZZ3Qn02gF4-34" value="&lt;div style=&quot;text-align: center;&quot;&gt;&lt;div style=&quot;text-align: left;&quot;&gt;&lt;font color=&quot;#3399ff&quot;&gt;&lt;b&gt;&lt;br&gt;&lt;/b&gt;&lt;/font&gt;&lt;/div&gt;&lt;/div&gt;" style="whiteSpace=wrap;html=1;align=left;container=0;glass=0;shadow=0;labelBorderColor=none;" parent="1" vertex="1">
          <mxGeometry x="-1503" y="104.35" width="288" height="59.15" as="geometry" />
        </mxCell>
        <mxCell id="NvgXYQUHseZZ3Qn02gF4-35" value="&lt;div style=&quot;text-align: center;&quot;&gt;&lt;div&gt;&lt;font color=&quot;#3399ff&quot;&gt;&lt;b&gt;&lt;br&gt;&lt;/b&gt;&lt;/font&gt;&lt;/div&gt;&lt;/div&gt;" style="whiteSpace=wrap;html=1;align=left;container=0;glass=0;shadow=0;labelBorderColor=none;" parent="1" vertex="1">
          <mxGeometry x="-1194" y="104.5503418803417" width="244" height="59.153846153846146" as="geometry" />
        </mxCell>
        <mxCell id="jXatoXMq33lXqJdieAz0-306" value="&lt;div style=&quot;text-align: center;&quot;&gt;&lt;div&gt;&lt;font color=&quot;#3399ff&quot;&gt;&lt;b&gt;&lt;br&gt;&lt;/b&gt;&lt;/font&gt;&lt;/div&gt;&lt;/div&gt;" style="whiteSpace=wrap;html=1;align=left;container=0;glass=0;shadow=0;labelBorderColor=none;" parent="1" vertex="1">
          <mxGeometry x="-950" y="163.55034188034168" width="244" height="59.153846153846146" as="geometry" />
        </mxCell>
        <mxCell id="jXatoXMq33lXqJdieAz0-307" value="&lt;b&gt;country&lt;/b&gt;" style="whiteSpace=wrap;html=1;align=center;container=0;shadow=0;labelBorderColor=none;" parent="1" vertex="1">
          <mxGeometry x="-2340" y="163.35034188034172" width="100" height="59.153846153846146" as="geometry" />
        </mxCell>
        <mxCell id="jXatoXMq33lXqJdieAz0-308" value="&lt;font style=&quot;font-size: 12px;&quot;&gt;&lt;span style=&quot;border-color: var(--border-color);&quot;&gt;(&lt;b&gt;country&lt;/b&gt;&lt;/span&gt;&lt;b style=&quot;border-color: var(--border-color);&quot;&gt;_id&lt;/b&gt;, &lt;font style=&quot;font-size: 12px;&quot;&gt;name&lt;/font&gt;)&lt;/font&gt;" style="whiteSpace=wrap;html=1;align=left;container=0;spacingLeft=5;shadow=0;labelBorderColor=none;" parent="1" vertex="1">
          <mxGeometry x="-2219" y="163.34999999999997" width="534" height="59.15" as="geometry" />
        </mxCell>
        <mxCell id="jXatoXMq33lXqJdieAz0-309" value="&lt;b style=&quot;border-color: var(--border-color); font-size: 11px; text-align: left;&quot;&gt;country_id&lt;/b&gt;" style="whiteSpace=wrap;html=1;align=center;container=0;shadow=0;labelBorderColor=none;" parent="1" vertex="1">
          <mxGeometry x="-1665" y="163.35034188034172" width="141" height="59.153846153846146" as="geometry" />
        </mxCell>
        <mxCell id="jXatoXMq33lXqJdieAz0-310" value="&lt;div style=&quot;text-align: center;&quot;&gt;&lt;div style=&quot;text-align: left;&quot;&gt;&lt;font color=&quot;#3399ff&quot;&gt;&lt;b&gt;&lt;br&gt;&lt;/b&gt;&lt;/font&gt;&lt;/div&gt;&lt;/div&gt;" style="whiteSpace=wrap;html=1;align=left;container=0;glass=0;shadow=0;labelBorderColor=none;" parent="1" vertex="1">
          <mxGeometry x="-1503" y="163.35" width="288" height="59.15" as="geometry" />
        </mxCell>
        <mxCell id="jXatoXMq33lXqJdieAz0-311" value="&lt;div style=&quot;text-align: center;&quot;&gt;&lt;div&gt;&lt;font color=&quot;#3399ff&quot;&gt;&lt;b&gt;&lt;br&gt;&lt;/b&gt;&lt;/font&gt;&lt;/div&gt;&lt;/div&gt;" style="whiteSpace=wrap;html=1;align=left;container=0;glass=0;shadow=0;labelBorderColor=none;" parent="1" vertex="1">
          <mxGeometry x="-1194" y="163.55034188034168" width="244" height="59.153846153846146" as="geometry" />
        </mxCell>
        <mxCell id="jXatoXMq33lXqJdieAz0-321" value="&lt;div style=&quot;text-align: center;&quot;&gt;&lt;div&gt;&lt;font color=&quot;#3399ff&quot;&gt;&lt;b&gt;&lt;br&gt;&lt;/b&gt;&lt;/font&gt;&lt;/div&gt;&lt;/div&gt;" style="whiteSpace=wrap;html=1;align=left;container=0;glass=0;shadow=0;labelBorderColor=none;" parent="1" vertex="1">
          <mxGeometry x="-950" y="222.86034188034174" width="244" height="59.153846153846146" as="geometry" />
        </mxCell>
        <mxCell id="jXatoXMq33lXqJdieAz0-322" value="&lt;b&gt;district&lt;/b&gt;" style="whiteSpace=wrap;html=1;align=center;container=0;shadow=0;labelBorderColor=none;" parent="1" vertex="1">
          <mxGeometry x="-2340" y="222.66034188034178" width="100" height="59.153846153846146" as="geometry" />
        </mxCell>
        <mxCell id="jXatoXMq33lXqJdieAz0-323" value="&lt;font style=&quot;font-size: 12px;&quot;&gt;&lt;span style=&quot;border-color: var(--border-color);&quot;&gt;(&lt;b&gt;district_name&lt;/b&gt;&lt;/span&gt;, &lt;font style=&quot;font-size: 12px;&quot;&gt;&lt;b&gt;country_id&lt;/b&gt;&lt;/font&gt;)&lt;/font&gt;" style="whiteSpace=wrap;html=1;align=left;container=0;spacingLeft=5;shadow=0;labelBorderColor=none;" parent="1" vertex="1">
          <mxGeometry x="-2219" y="222.66000000000003" width="534" height="59.15" as="geometry" />
        </mxCell>
        <mxCell id="jXatoXMq33lXqJdieAz0-324" value="&lt;b style=&quot;border-color: var(--border-color); font-size: 11px; text-align: left;&quot;&gt;&lt;b style=&quot;&quot;&gt;district,&amp;nbsp;&lt;/b&gt;country_id&lt;/b&gt;" style="whiteSpace=wrap;html=1;align=center;container=0;shadow=0;labelBorderColor=none;" parent="1" vertex="1">
          <mxGeometry x="-1665" y="222.66034188034178" width="141" height="59.153846153846146" as="geometry" />
        </mxCell>
        <mxCell id="jXatoXMq33lXqJdieAz0-325" value="&lt;div style=&quot;text-align: center;&quot;&gt;&lt;div style=&quot;text-align: left;&quot;&gt;&lt;ul style=&quot;line-height: 18px;&quot;&gt;&lt;li&gt;&lt;span style=&quot;background-color: initial;&quot;&gt;&lt;b style=&quot;background-color: initial; border-color: var(--border-color);&quot;&gt;&lt;font style=&quot;border-color: var(--border-color);&quot; color=&quot;#3399ff&quot;&gt;&lt;b style=&quot;color: rgb(0, 0, 0); background-color: initial; border-color: var(--border-color);&quot;&gt;&lt;font style=&quot;border-color: var(--border-color);&quot; color=&quot;#3399ff&quot;&gt;country&lt;/font&gt;&lt;/b&gt;_id&amp;nbsp;&lt;/font&gt;&lt;/b&gt;references&amp;nbsp;&lt;/span&gt;&lt;b&gt;country&lt;/b&gt;&lt;/li&gt;&lt;/ul&gt;&lt;/div&gt;&lt;/div&gt;" style="whiteSpace=wrap;html=1;align=left;container=0;glass=0;shadow=0;labelBorderColor=none;" parent="1" vertex="1">
          <mxGeometry x="-1503" y="222.66" width="288" height="59.15" as="geometry" />
        </mxCell>
        <mxCell id="jXatoXMq33lXqJdieAz0-326" value="&lt;div style=&quot;text-align: center;&quot;&gt;&lt;div&gt;&lt;font color=&quot;#3399ff&quot;&gt;&lt;b&gt;&lt;br&gt;&lt;/b&gt;&lt;/font&gt;&lt;/div&gt;&lt;/div&gt;" style="whiteSpace=wrap;html=1;align=left;container=0;glass=0;shadow=0;labelBorderColor=none;" parent="1" vertex="1">
          <mxGeometry x="-1194" y="222.86034188034174" width="244" height="59.153846153846146" as="geometry" />
        </mxCell>
        <mxCell id="kAAWrRlcYHphNK85xH5g-2" value="&lt;div style=&quot;text-align: center;&quot;&gt;&lt;div&gt;&lt;font color=&quot;#3399ff&quot;&gt;&lt;b&gt;&lt;br&gt;&lt;/b&gt;&lt;/font&gt;&lt;/div&gt;&lt;/div&gt;" style="whiteSpace=wrap;html=1;align=left;container=0;glass=0;shadow=0;labelBorderColor=none;" parent="1" vertex="1">
          <mxGeometry x="-950" y="282.1703418803417" width="244" height="59.153846153846146" as="geometry" />
        </mxCell>
        <mxCell id="kAAWrRlcYHphNK85xH5g-3" value="&lt;b&gt;city&lt;/b&gt;" style="whiteSpace=wrap;html=1;align=center;container=0;shadow=0;labelBorderColor=none;" parent="1" vertex="1">
          <mxGeometry x="-2340" y="281.9703418803417" width="100" height="59.153846153846146" as="geometry" />
        </mxCell>
        <mxCell id="kAAWrRlcYHphNK85xH5g-4" value="&lt;font style=&quot;font-size: 12px;&quot;&gt;&lt;span style=&quot;border-color: var(--border-color);&quot;&gt;(&lt;b&gt;city_name&lt;/b&gt;&lt;/span&gt;,&amp;nbsp;&lt;b&gt;district_name,&lt;/b&gt;&amp;nbsp;&lt;font style=&quot;font-size: 12px;&quot;&gt;&lt;b&gt;country_id&lt;/b&gt;&lt;/font&gt;)&lt;/font&gt;" style="whiteSpace=wrap;html=1;align=left;container=0;spacingLeft=5;shadow=0;labelBorderColor=none;" parent="1" vertex="1">
          <mxGeometry x="-2219" y="281.96999999999997" width="534" height="59.15" as="geometry" />
        </mxCell>
        <mxCell id="kAAWrRlcYHphNK85xH5g-5" value="&lt;b style=&quot;border-color: var(--border-color); text-align: left; font-size: 11px;&quot;&gt;&lt;b style=&quot;&quot;&gt;&lt;font style=&quot;font-size: 11px;&quot;&gt;city_name,&amp;nbsp;&lt;/font&gt;&lt;/b&gt;&lt;/b&gt;&lt;div style=&quot;font-size: 11px;&quot;&gt;&lt;b style=&quot;border-color: var(--border-color); text-align: left;&quot;&gt;&lt;b style=&quot;&quot;&gt;&lt;font style=&quot;font-size: 11px;&quot;&gt;district_name,&amp;nbsp;&lt;/font&gt;&lt;/b&gt;&lt;/b&gt;&lt;div&gt;&lt;b style=&quot;border-color: var(--border-color); text-align: left;&quot;&gt;&lt;font style=&quot;font-size: 11px;&quot;&gt;&lt;b style=&quot;&quot;&gt;&amp;nbsp;&lt;/b&gt;country_id&lt;/font&gt;&lt;/b&gt;&lt;/div&gt;&lt;/div&gt;" style="whiteSpace=wrap;html=1;align=center;container=0;shadow=0;labelBorderColor=none;" parent="1" vertex="1">
          <mxGeometry x="-1665" y="281.9703418803417" width="141" height="59.153846153846146" as="geometry" />
        </mxCell>
        <mxCell id="kAAWrRlcYHphNK85xH5g-6" value="&lt;div style=&quot;text-align: center;&quot;&gt;&lt;div style=&quot;text-align: left;&quot;&gt;&lt;ul style=&quot;line-height: 18px;&quot;&gt;&lt;li&gt;&lt;span style=&quot;background-color: initial;&quot;&gt;&lt;b style=&quot;background-color: initial; border-color: var(--border-color);&quot;&gt;&lt;font style=&quot;border-color: var(--border-color);&quot; color=&quot;#3399ff&quot;&gt;&lt;b style=&quot;color: rgb(0, 0, 0); background-color: initial; border-color: var(--border-color);&quot;&gt;&lt;font style=&quot;border-color: var(--border-color);&quot; color=&quot;#3399ff&quot;&gt;&lt;b&gt;district_name,&amp;nbsp;&lt;/b&gt;country&lt;/font&gt;&lt;/b&gt;_id&amp;nbsp;&lt;br&gt;&lt;/font&gt;&lt;/b&gt;references&amp;nbsp;&lt;/span&gt;&lt;b&gt;di&lt;/b&gt;&lt;b style=&quot;background-color: initial;&quot;&gt;strict&lt;/b&gt;&lt;/li&gt;&lt;/ul&gt;&lt;/div&gt;&lt;/div&gt;" style="whiteSpace=wrap;html=1;align=left;container=0;glass=0;shadow=0;labelBorderColor=none;" parent="1" vertex="1">
          <mxGeometry x="-1503" y="281.97" width="288" height="59.15" as="geometry" />
        </mxCell>
        <mxCell id="kAAWrRlcYHphNK85xH5g-7" value="&lt;div style=&quot;text-align: center;&quot;&gt;&lt;div&gt;&lt;font color=&quot;#3399ff&quot;&gt;&lt;b&gt;&lt;br&gt;&lt;/b&gt;&lt;/font&gt;&lt;/div&gt;&lt;/div&gt;" style="whiteSpace=wrap;html=1;align=left;container=0;glass=0;shadow=0;labelBorderColor=none;" parent="1" vertex="1">
          <mxGeometry x="-1194" y="282.1703418803417" width="244" height="59.153846153846146" as="geometry" />
        </mxCell>
        <mxCell id="4g6vB5chk8NBOTjmCvvp-313" value="&lt;div style=&quot;text-align: center;&quot;&gt;&lt;div&gt;&lt;font color=&quot;#3399ff&quot;&gt;&lt;b&gt;&lt;br&gt;&lt;/b&gt;&lt;/font&gt;&lt;/div&gt;&lt;/div&gt;" style="whiteSpace=wrap;html=1;align=left;container=0;glass=0;shadow=0;labelBorderColor=none;" parent="1" vertex="1">
          <mxGeometry x="-950" y="381.46000000000004" width="244" height="59.99" as="geometry" />
        </mxCell>
        <mxCell id="4g6vB5chk8NBOTjmCvvp-247" value="&lt;font style=&quot;font-size: 12px;&quot;&gt;(&lt;b&gt;person&lt;/b&gt;&lt;b&gt;_id&lt;/b&gt;,&amp;nbsp;&lt;b style=&quot;border-color: var(--border-color);&quot;&gt;follower_id&lt;/b&gt;&lt;span style=&quot;border-color: var(--border-color);&quot;&gt;,&lt;/span&gt;&lt;b style=&quot;border-color: var(--border-color);&quot;&gt; &lt;/b&gt;&lt;span style=&quot;border-color: var(--border-color);&quot;&gt;created_at&lt;/span&gt;)&lt;/font&gt;" style="whiteSpace=wrap;html=1;align=left;container=0;spacingLeft=5;shadow=0;labelBorderColor=none;" parent="1" vertex="1">
          <mxGeometry x="-2219" y="381.59" width="534" height="59.15" as="geometry" />
        </mxCell>
        <mxCell id="4g6vB5chk8NBOTjmCvvp-248" value="&lt;b style=&quot;border-color: var(--border-color);&quot;&gt;follow&lt;/b&gt;" style="whiteSpace=wrap;html=1;align=center;container=0;shadow=0;labelBorderColor=none;" parent="1" vertex="1">
          <mxGeometry x="-2340" y="381.5946153846151" width="100" height="59.153846153846146" as="geometry" />
        </mxCell>
        <mxCell id="4g6vB5chk8NBOTjmCvvp-249" value="&lt;span style=&quot;border-color: var(--border-color); font-size: 11px; text-align: left;&quot;&gt;(&lt;/span&gt;&lt;span style=&quot;border-color: var(--border-color); font-size: 11px; text-align: left;&quot;&gt;&lt;b style=&quot;font-size: 12px;&quot;&gt;person_id&lt;/b&gt;,&amp;nbsp;&lt;b style=&quot;border-color: var(--border-color);&quot;&gt;follower_id&lt;/b&gt;)&lt;/span&gt;" style="whiteSpace=wrap;html=1;align=center;container=0;shadow=0;labelBorderColor=none;" parent="1" vertex="1">
          <mxGeometry x="-1665" y="381.5946153846151" width="142" height="59.153846153846146" as="geometry" />
        </mxCell>
        <mxCell id="4g6vB5chk8NBOTjmCvvp-250" value="&lt;div style=&quot;&quot;&gt;&lt;ul style=&quot;line-height: 150%;&quot;&gt;&lt;li&gt;&lt;b style=&quot;background-color: initial; border-color: var(--border-color);&quot;&gt;&lt;font style=&quot;border-color: var(--border-color);&quot; color=&quot;#3399ff&quot;&gt;&lt;b style=&quot;color: rgb(0, 0, 0); background-color: initial; border-color: var(--border-color);&quot;&gt;&lt;font style=&quot;border-color: var(--border-color);&quot; color=&quot;#3399ff&quot;&gt;person&lt;/font&gt;&lt;/b&gt;_id&amp;nbsp;&lt;/font&gt;&lt;/b&gt;&lt;span style=&quot;background-color: initial;&quot;&gt;references&amp;nbsp;&lt;/span&gt;&lt;b&gt;person&lt;/b&gt;&lt;/li&gt;&lt;li style=&quot;border-color: var(--border-color);&quot;&gt;&lt;b style=&quot;border-color: var(--border-color); background-color: initial;&quot;&gt;&lt;font style=&quot;border-color: var(--border-color);&quot; color=&quot;#3399ff&quot;&gt;follower_id&amp;nbsp;&lt;/font&gt;&lt;/b&gt;references&amp;nbsp;&lt;b style=&quot;border-color: var(--border-color); background-color: initial;&quot;&gt;&lt;b&gt;person&amp;nbsp;&lt;br&gt;&lt;/b&gt;&lt;/b&gt;&lt;b style=&quot;background-color: initial; border-color: var(--border-color);&quot;&gt;(&lt;/b&gt;&lt;span style=&quot;background-color: initial; border-color: var(--border-color);&quot;&gt;user_id&lt;/span&gt;&lt;b style=&quot;background-color: initial; border-color: var(--border-color);&quot;&gt;)&lt;/b&gt;&lt;/li&gt;&lt;/ul&gt;&lt;/div&gt;" style="whiteSpace=wrap;html=1;align=left;container=0;glass=0;shadow=0;labelBorderColor=none;" parent="1" vertex="1">
          <mxGeometry x="-1503" y="381.59" width="288" height="59.15" as="geometry" />
        </mxCell>
        <mxCell id="4g6vB5chk8NBOTjmCvvp-251" value="&lt;div style=&quot;text-align: center;&quot;&gt;&lt;div&gt;&lt;font color=&quot;#3399ff&quot;&gt;&lt;b&gt;&lt;br&gt;&lt;/b&gt;&lt;/font&gt;&lt;/div&gt;&lt;/div&gt;" style="whiteSpace=wrap;html=1;align=left;container=0;glass=0;shadow=0;labelBorderColor=none;" parent="1" vertex="1">
          <mxGeometry x="-1194" y="381.46000000000004" width="244" height="59.99" as="geometry" />
        </mxCell>
        <mxCell id="4g6vB5chk8NBOTjmCvvp-314" value="&lt;div style=&quot;text-align: center;&quot;&gt;&lt;div&gt;&lt;font color=&quot;#3399ff&quot;&gt;&lt;b&gt;&lt;br&gt;&lt;/b&gt;&lt;/font&gt;&lt;/div&gt;&lt;/div&gt;" style="whiteSpace=wrap;html=1;align=left;container=0;glass=0;shadow=0;labelBorderColor=none;" parent="1" vertex="1">
          <mxGeometry x="-950" y="441.44999999999993" width="244" height="73.12" as="geometry" />
        </mxCell>
        <mxCell id="4g6vB5chk8NBOTjmCvvp-253" value="&lt;font style=&quot;font-size: 12px;&quot;&gt;(&lt;b style=&quot;&quot;&gt;post_id,&amp;nbsp;&lt;/b&gt;&lt;b&gt;person&lt;/b&gt;&lt;b&gt;_id&lt;/b&gt;, created_at)&lt;/font&gt;" style="whiteSpace=wrap;html=1;align=left;container=0;spacingLeft=5;shadow=0;labelBorderColor=none;" parent="1" vertex="1">
          <mxGeometry x="-2219" y="440.74999999999994" width="534" height="73.78" as="geometry" />
        </mxCell>
        <mxCell id="4g6vB5chk8NBOTjmCvvp-254" value="&lt;b style=&quot;border-color: var(--border-color); text-align: left;&quot;&gt;&lt;font style=&quot;font-size: 12px;&quot;&gt;post_like&lt;/font&gt;&lt;/b&gt;" style="whiteSpace=wrap;html=1;align=center;container=0;shadow=0;labelBorderColor=none;" parent="1" vertex="1">
          <mxGeometry x="-2340" y="440.74999999999994" width="100" height="73.78" as="geometry" />
        </mxCell>
        <mxCell id="4g6vB5chk8NBOTjmCvvp-255" value="(&lt;b style=&quot;font-size: 11px; text-align: left;&quot;&gt;post_id,&amp;nbsp;&lt;/b&gt;&lt;b style=&quot;text-align: left;&quot;&gt;person&lt;/b&gt;&lt;b style=&quot;text-align: left;&quot;&gt;_id&lt;/b&gt;&lt;span style=&quot;font-size: 11px; text-align: left; background-color: initial;&quot;&gt;)&lt;/span&gt;" style="whiteSpace=wrap;html=1;align=center;container=0;shadow=0;labelBorderColor=none;" parent="1" vertex="1">
          <mxGeometry x="-1665" y="440.74999999999994" width="142" height="73.78" as="geometry" />
        </mxCell>
        <mxCell id="4g6vB5chk8NBOTjmCvvp-256" value="&lt;div style=&quot;&quot;&gt;&lt;ul style=&quot;line-height: 150%;&quot;&gt;&lt;li style=&quot;border-color: var(--border-color);&quot;&gt;&lt;b style=&quot;border-color: var(--border-color); background-color: initial;&quot;&gt;&lt;font style=&quot;border-color: var(--border-color);&quot; color=&quot;#3399ff&quot;&gt;post_id&amp;nbsp;&lt;/font&gt;&lt;/b&gt;references&amp;nbsp;&lt;b style=&quot;border-color: var(--border-color); background-color: initial;&quot;&gt;post&lt;/b&gt;&lt;/li&gt;&lt;li&gt;&lt;b style=&quot;background-color: initial; border-color: var(--border-color);&quot;&gt;&lt;font style=&quot;border-color: var(--border-color);&quot; color=&quot;#3399ff&quot;&gt;&lt;b style=&quot;color: rgb(0, 0, 0); background-color: initial; border-color: var(--border-color);&quot;&gt;&lt;font style=&quot;border-color: var(--border-color);&quot; color=&quot;#3399ff&quot;&gt;person&lt;/font&gt;&lt;/b&gt;_id&amp;nbsp;&lt;/font&gt;&lt;/b&gt;&lt;span style=&quot;background-color: initial;&quot;&gt;references&amp;nbsp;&lt;/span&gt;&lt;b&gt;person&lt;/b&gt;&lt;/li&gt;&lt;/ul&gt;&lt;/div&gt;" style="whiteSpace=wrap;html=1;align=left;container=0;glass=0;shadow=0;labelBorderColor=none;" parent="1" vertex="1">
          <mxGeometry x="-1503" y="440.75" width="288" height="73.78" as="geometry" />
        </mxCell>
        <mxCell id="4g6vB5chk8NBOTjmCvvp-257" value="&lt;div style=&quot;text-align: center;&quot;&gt;&lt;div&gt;&lt;font color=&quot;#3399ff&quot;&gt;&lt;b&gt;&lt;br&gt;&lt;/b&gt;&lt;/font&gt;&lt;/div&gt;&lt;/div&gt;" style="whiteSpace=wrap;html=1;align=left;container=0;glass=0;shadow=0;labelBorderColor=none;" parent="1" vertex="1">
          <mxGeometry x="-1194" y="441.44999999999993" width="244" height="73.12" as="geometry" />
        </mxCell>
        <mxCell id="4g6vB5chk8NBOTjmCvvp-315" value="&lt;div style=&quot;text-align: center;&quot;&gt;&lt;div&gt;&lt;font color=&quot;#3399ff&quot;&gt;&lt;b&gt;&lt;br&gt;&lt;/b&gt;&lt;/font&gt;&lt;/div&gt;&lt;/div&gt;" style="whiteSpace=wrap;html=1;align=left;container=0;glass=0;shadow=0;labelBorderColor=none;" parent="1" vertex="1">
          <mxGeometry x="-950" y="514.5688034188037" width="244" height="59.153846153846146" as="geometry" />
        </mxCell>
        <mxCell id="4g6vB5chk8NBOTjmCvvp-259" value="&lt;font style=&quot;font-size: 12px;&quot;&gt;(&lt;b&gt;comment&lt;/b&gt;&lt;b style=&quot;border-color: var(--border-color);&quot;&gt;_id&lt;/b&gt;&lt;span style=&quot;border-color: var(--border-color);&quot;&gt;&lt;b&gt;,&lt;/b&gt;&amp;nbsp;&lt;/span&gt;&lt;b style=&quot;border-color: var(--border-color);&quot;&gt;&lt;b style=&quot;&quot;&gt;person&lt;/b&gt;_id&lt;/b&gt;&lt;span style=&quot;border-color: var(--border-color);&quot;&gt;, created_at&lt;/span&gt;)&lt;/font&gt;" style="whiteSpace=wrap;html=1;align=left;container=0;spacingLeft=5;shadow=0;labelBorderColor=none;" parent="1" vertex="1">
          <mxGeometry x="-2219" y="514.0200000000001" width="534" height="59.15" as="geometry" />
        </mxCell>
        <mxCell id="4g6vB5chk8NBOTjmCvvp-260" value="&lt;b style=&quot;border-color: var(--border-color); text-align: left;&quot;&gt;&lt;font style=&quot;font-size: 12px;&quot;&gt;comment_like&lt;/font&gt;&lt;/b&gt;" style="whiteSpace=wrap;html=1;align=center;container=0;shadow=0;labelBorderColor=none;" parent="1" vertex="1">
          <mxGeometry x="-2340" y="514.0223076923077" width="100" height="59.153846153846146" as="geometry" />
        </mxCell>
        <mxCell id="4g6vB5chk8NBOTjmCvvp-261" value="&lt;font style=&quot;&quot;&gt;(&lt;b style=&quot;font-size: 12px; text-align: left;&quot;&gt;comment&lt;/b&gt;&lt;b style=&quot;font-size: 12px; text-align: left; border-color: var(--border-color);&quot;&gt;_id&lt;/b&gt;&lt;span style=&quot;font-size: 12px; text-align: left; border-color: var(--border-color);&quot;&gt;&lt;b&gt;,&lt;/b&gt;&amp;nbsp;&lt;/span&gt;&lt;b style=&quot;font-size: 12px; text-align: left; border-color: var(--border-color);&quot;&gt;&lt;b style=&quot;&quot;&gt;person&lt;/b&gt;_id&lt;/b&gt;&lt;span style=&quot;text-align: left;&quot;&gt;&lt;font style=&quot;font-size: 11px;&quot;&gt;)&lt;/font&gt;&lt;/span&gt;&lt;/font&gt;" style="whiteSpace=wrap;html=1;align=center;container=0;shadow=0;labelBorderColor=none;" parent="1" vertex="1">
          <mxGeometry x="-1665" y="514.0223076923077" width="142" height="59.153846153846146" as="geometry" />
        </mxCell>
        <mxCell id="4g6vB5chk8NBOTjmCvvp-262" value="&lt;div style=&quot;text-align: center;&quot;&gt;&lt;div&gt;&lt;font color=&quot;#3399ff&quot;&gt;&lt;b&gt;&lt;br&gt;&lt;/b&gt;&lt;/font&gt;&lt;/div&gt;&lt;/div&gt;" style="whiteSpace=wrap;html=1;align=left;container=0;glass=0;shadow=0;labelBorderColor=none;" parent="1" vertex="1">
          <mxGeometry x="-1194" y="514.5688034188037" width="244" height="59.153846153846146" as="geometry" />
        </mxCell>
        <mxCell id="4g6vB5chk8NBOTjmCvvp-263" value="&lt;div style=&quot;&quot;&gt;&lt;ul style=&quot;line-height: 150%;&quot;&gt;&lt;li&gt;&lt;b style=&quot;background-color: initial; border-color: var(--border-color);&quot;&gt;&lt;font style=&quot;border-color: var(--border-color);&quot; color=&quot;#3399ff&quot;&gt;commnent_id&amp;nbsp;&lt;/font&gt;&lt;/b&gt;&lt;span style=&quot;background-color: initial;&quot;&gt;references &lt;b&gt;comment&lt;/b&gt;&lt;/span&gt;&lt;/li&gt;&lt;li style=&quot;border-color: var(--border-color);&quot;&gt;&lt;b style=&quot;border-color: var(--border-color); background-color: initial;&quot;&gt;&lt;font style=&quot;border-color: var(--border-color);&quot; color=&quot;#3399ff&quot;&gt;&lt;b style=&quot;color: rgb(0, 0, 0); background-color: initial; border-color: var(--border-color);&quot;&gt;&lt;font style=&quot;border-color: var(--border-color);&quot; color=&quot;#3399ff&quot;&gt;person&lt;/font&gt;&lt;/b&gt;_id&amp;nbsp;&lt;/font&gt;&lt;/b&gt;references&amp;nbsp;&lt;b&gt;person&lt;/b&gt;&lt;/li&gt;&lt;/ul&gt;&lt;/div&gt;" style="whiteSpace=wrap;html=1;align=left;container=0;glass=0;shadow=0;labelBorderColor=none;verticalAlign=middle;" parent="1" vertex="1">
          <mxGeometry x="-1503" y="514.02" width="288" height="59.15" as="geometry" />
        </mxCell>
        <mxCell id="NvgXYQUHseZZ3Qn02gF4-47" value="&lt;div style=&quot;text-align: center;&quot;&gt;&lt;div&gt;&lt;font color=&quot;#3399ff&quot;&gt;&lt;b&gt;&lt;br&gt;&lt;/b&gt;&lt;/font&gt;&lt;/div&gt;&lt;/div&gt;" style="whiteSpace=wrap;html=1;align=left;container=0;glass=0;shadow=0;labelBorderColor=none;" parent="1" vertex="1">
          <mxGeometry x="-950" y="573.9688034188035" width="244" height="59.153846153846146" as="geometry" />
        </mxCell>
        <mxCell id="NvgXYQUHseZZ3Qn02gF4-48" value="&lt;font style=&quot;font-size: 12px;&quot;&gt;(&lt;b&gt;comment&lt;/b&gt;&lt;b style=&quot;border-color: var(--border-color);&quot;&gt;_id&lt;/b&gt;&lt;span style=&quot;border-color: var(--border-color);&quot;&gt;&lt;b&gt;,&lt;/b&gt;&amp;nbsp;&lt;/span&gt;&lt;span style=&quot;border-color: var(--border-color);&quot;&gt;parent_id&lt;/span&gt;)&lt;/font&gt;" style="whiteSpace=wrap;html=1;align=left;container=0;spacingLeft=5;shadow=0;labelBorderColor=none;" parent="1" vertex="1">
          <mxGeometry x="-2219" y="573.42" width="534" height="59.15" as="geometry" />
        </mxCell>
        <mxCell id="NvgXYQUHseZZ3Qn02gF4-49" value="&lt;b style=&quot;border-color: var(--border-color); text-align: left;&quot;&gt;comment_parent&lt;/b&gt;" style="whiteSpace=wrap;html=1;align=center;container=0;shadow=0;labelBorderColor=none;" parent="1" vertex="1">
          <mxGeometry x="-2340" y="573.4223076923075" width="100" height="59.153846153846146" as="geometry" />
        </mxCell>
        <mxCell id="NvgXYQUHseZZ3Qn02gF4-50" value="(&lt;font style=&quot;font-size: 12px;&quot;&gt;&lt;b style=&quot;text-align: left;&quot;&gt;comment&lt;/b&gt;&lt;b style=&quot;text-align: left; border-color: var(--border-color);&quot;&gt;_id&lt;/b&gt;&lt;/font&gt;&lt;span style=&quot;font-size: 11px; text-align: left;&quot;&gt;)&lt;/span&gt;" style="whiteSpace=wrap;html=1;align=center;container=0;shadow=0;labelBorderColor=none;" parent="1" vertex="1">
          <mxGeometry x="-1665" y="573.4223076923075" width="142" height="59.153846153846146" as="geometry" />
        </mxCell>
        <mxCell id="NvgXYQUHseZZ3Qn02gF4-51" value="&lt;div style=&quot;text-align: center;&quot;&gt;&lt;div&gt;&lt;font color=&quot;#3399ff&quot;&gt;&lt;b&gt;&lt;br&gt;&lt;/b&gt;&lt;/font&gt;&lt;/div&gt;&lt;/div&gt;" style="whiteSpace=wrap;html=1;align=left;container=0;glass=0;shadow=0;labelBorderColor=none;" parent="1" vertex="1">
          <mxGeometry x="-1194" y="573.9688034188035" width="244" height="59.153846153846146" as="geometry" />
        </mxCell>
        <mxCell id="NvgXYQUHseZZ3Qn02gF4-52" value="&lt;div style=&quot;&quot;&gt;&lt;ul style=&quot;line-height: 150%;&quot;&gt;&lt;li&gt;&lt;b style=&quot;background-color: initial; border-color: var(--border-color);&quot;&gt;&lt;font style=&quot;border-color: var(--border-color);&quot; color=&quot;#3399ff&quot;&gt;comment_id&amp;nbsp;&lt;/font&gt;&lt;/b&gt;&lt;span style=&quot;background-color: initial;&quot;&gt;references &lt;b&gt;comment&lt;/b&gt;&lt;/span&gt;&lt;/li&gt;&lt;li style=&quot;border-color: var(--border-color);&quot;&gt;&lt;b style=&quot;border-color: var(--border-color); background-color: initial;&quot;&gt;&lt;font style=&quot;border-color: var(--border-color);&quot; color=&quot;#3399ff&quot;&gt;&lt;b style=&quot;color: rgb(0, 0, 0); background-color: initial; border-color: var(--border-color);&quot;&gt;&lt;font style=&quot;border-color: var(--border-color);&quot; color=&quot;#3399ff&quot;&gt;parent&lt;/font&gt;&lt;/b&gt;_id&amp;nbsp;&lt;/font&gt;&lt;/b&gt;references&amp;nbsp;&lt;b&gt;comment (&lt;/b&gt;comment_id)&lt;/li&gt;&lt;/ul&gt;&lt;/div&gt;" style="whiteSpace=wrap;html=1;align=left;container=0;glass=0;shadow=0;labelBorderColor=none;verticalAlign=middle;" parent="1" vertex="1">
          <mxGeometry x="-1503" y="573.42" width="288" height="59.15" as="geometry" />
        </mxCell>
        <mxCell id="NvgXYQUHseZZ3Qn02gF4-37" value="&lt;div style=&quot;text-align: center;&quot;&gt;&lt;div&gt;&lt;font color=&quot;#3399ff&quot;&gt;&lt;b&gt;&lt;br&gt;&lt;/b&gt;&lt;/font&gt;&lt;/div&gt;&lt;/div&gt;" style="whiteSpace=wrap;html=1;align=left;container=0;glass=0;shadow=0;labelBorderColor=none;" parent="1" vertex="1">
          <mxGeometry x="-950" y="632.9699999999999" width="244" height="58.49" as="geometry" />
        </mxCell>
        <mxCell id="NvgXYQUHseZZ3Qn02gF4-38" value="&lt;font style=&quot;font-size: 12px;&quot;&gt;(&lt;b&gt;post&lt;/b&gt;&lt;b style=&quot;border-color: var(--border-color);&quot;&gt;_id&lt;/b&gt;&lt;span style=&quot;border-color: var(--border-color);&quot;&gt;&lt;b&gt;,&lt;/b&gt;&amp;nbsp;&lt;/span&gt;&lt;span style=&quot;border-color: var(--border-color);&quot;&gt;&lt;b&gt;tag_id&lt;/b&gt;&lt;/span&gt;)&lt;/font&gt;" style="whiteSpace=wrap;html=1;align=left;container=0;spacingLeft=5;shadow=0;labelBorderColor=none;" parent="1" vertex="1">
          <mxGeometry x="-2219" y="632.42" width="534" height="59" as="geometry" />
        </mxCell>
        <mxCell id="NvgXYQUHseZZ3Qn02gF4-39" value="&lt;b style=&quot;border-color: var(--border-color); text-align: left;&quot;&gt;&lt;font style=&quot;font-size: 12px;&quot;&gt;post_tag&lt;/font&gt;&lt;/b&gt;" style="whiteSpace=wrap;html=1;align=center;container=0;shadow=0;labelBorderColor=none;" parent="1" vertex="1">
          <mxGeometry x="-2340" y="632.42" width="100" height="59" as="geometry" />
        </mxCell>
        <mxCell id="NvgXYQUHseZZ3Qn02gF4-40" value="(&lt;b style=&quot;text-align: left;&quot;&gt;post&lt;/b&gt;&lt;b style=&quot;text-align: left; border-color: var(--border-color); font-size: 11px;&quot;&gt;_id&lt;/b&gt;&lt;span style=&quot;text-align: left; border-color: var(--border-color); font-size: 11px;&quot;&gt;&lt;b&gt;,&lt;/b&gt;&amp;nbsp;&lt;/span&gt;&lt;span style=&quot;text-align: left; border-color: var(--border-color);&quot;&gt;&lt;b&gt;tag_id&lt;/b&gt;&lt;/span&gt;&lt;span style=&quot;font-size: 11px; text-align: left;&quot;&gt;)&lt;/span&gt;" style="whiteSpace=wrap;html=1;align=center;container=0;shadow=0;labelBorderColor=none;" parent="1" vertex="1">
          <mxGeometry x="-1665" y="632.42" width="142" height="59" as="geometry" />
        </mxCell>
        <mxCell id="NvgXYQUHseZZ3Qn02gF4-41" value="&lt;div style=&quot;text-align: center;&quot;&gt;&lt;div&gt;&lt;font color=&quot;#3399ff&quot;&gt;&lt;b&gt;&lt;br&gt;&lt;/b&gt;&lt;/font&gt;&lt;/div&gt;&lt;/div&gt;" style="whiteSpace=wrap;html=1;align=left;container=0;glass=0;shadow=0;labelBorderColor=none;" parent="1" vertex="1">
          <mxGeometry x="-1194" y="632.9699999999999" width="244" height="58.49" as="geometry" />
        </mxCell>
        <mxCell id="NvgXYQUHseZZ3Qn02gF4-42" value="&lt;div style=&quot;&quot;&gt;&lt;ul style=&quot;line-height: 150%;&quot;&gt;&lt;li&gt;&lt;b style=&quot;background-color: initial; border-color: var(--border-color);&quot;&gt;&lt;font style=&quot;border-color: var(--border-color);&quot; color=&quot;#3399ff&quot;&gt;post_id&amp;nbsp;&lt;/font&gt;&lt;/b&gt;&lt;span style=&quot;background-color: initial;&quot;&gt;references &lt;b&gt;post&lt;/b&gt;&lt;/span&gt;&lt;/li&gt;&lt;li style=&quot;border-color: var(--border-color);&quot;&gt;&lt;b style=&quot;border-color: var(--border-color); background-color: initial;&quot;&gt;&lt;font style=&quot;border-color: var(--border-color);&quot; color=&quot;#3399ff&quot;&gt;&lt;b style=&quot;color: rgb(0, 0, 0); background-color: initial; border-color: var(--border-color);&quot;&gt;&lt;font style=&quot;border-color: var(--border-color);&quot; color=&quot;#3399ff&quot;&gt;tag&lt;/font&gt;&lt;/b&gt;_id&amp;nbsp;&lt;/font&gt;&lt;/b&gt;references&amp;nbsp;&lt;b&gt;tag&lt;/b&gt;&lt;/li&gt;&lt;/ul&gt;&lt;/div&gt;" style="whiteSpace=wrap;html=1;align=left;container=0;glass=0;shadow=0;labelBorderColor=none;verticalAlign=middle;" parent="1" vertex="1">
          <mxGeometry x="-1503" y="632.42" width="288" height="59" as="geometry" />
        </mxCell>
        <mxCell id="czj0lWYuDd8mKOrDeeGV-88" value="&lt;span style=&quot;font-size: 11px; text-wrap: nowrap;&quot;&gt;&lt;b&gt;person_id&lt;/b&gt;&lt;/span&gt;&lt;br style=&quot;font-size: 11px; text-wrap: nowrap;&quot;&gt;&lt;span style=&quot;font-size: 11px; text-wrap: nowrap;&quot;&gt;username&lt;/span&gt;&lt;br style=&quot;font-size: 11px; text-wrap: nowrap;&quot;&gt;&lt;span style=&quot;font-size: 11px; text-wrap: nowrap;&quot;&gt;first_name&lt;/span&gt;&lt;br style=&quot;font-size: 11px; text-wrap: nowrap;&quot;&gt;&lt;span style=&quot;font-size: 11px; text-wrap: nowrap;&quot;&gt;last_name&lt;/span&gt;&lt;br style=&quot;font-size: 11px; text-wrap: nowrap;&quot;&gt;&lt;span style=&quot;font-size: 11px; text-wrap: nowrap;&quot;&gt;email&lt;/span&gt;&lt;br style=&quot;font-size: 11px; text-wrap: nowrap;&quot;&gt;&lt;span style=&quot;font-size: 11px; text-wrap: nowrap;&quot;&gt;password&lt;/span&gt;&lt;br style=&quot;font-size: 11px; text-wrap: nowrap;&quot;&gt;&lt;span style=&quot;font-size: 11px; text-wrap: nowrap;&quot;&gt;birthdate&lt;/span&gt;&lt;br style=&quot;font-size: 11px; text-wrap: nowrap;&quot;&gt;&lt;span style=&quot;font-size: 11px; text-wrap: nowrap;&quot;&gt;created_at&lt;/span&gt;&lt;br style=&quot;font-size: 11px; text-wrap: nowrap;&quot;&gt;&lt;span style=&quot;font-size: 11px; text-wrap: nowrap;&quot;&gt;&lt;b&gt;born_country_id&lt;/b&gt;&lt;/span&gt;&lt;br style=&quot;font-size: 11px; text-wrap: nowrap;&quot;&gt;&lt;span style=&quot;font-size: 11px; text-wrap: nowrap;&quot;&gt;&lt;b&gt;city_name&lt;/b&gt;&lt;/span&gt;&lt;br style=&quot;font-size: 11px; text-wrap: nowrap;&quot;&gt;&lt;span style=&quot;font-size: 11px; text-wrap: nowrap;&quot;&gt;&lt;b&gt;district_name&lt;/b&gt;&lt;/span&gt;&lt;br style=&quot;font-size: 11px; text-wrap: nowrap;&quot;&gt;&lt;span style=&quot;font-size: 11px; text-wrap: nowrap;&quot;&gt;&lt;b&gt;country_id&lt;/b&gt;&lt;/span&gt;" style="rounded=0;whiteSpace=wrap;html=1;align=left;spacingBottom=0;spacingRight=0;" parent="1" vertex="1">
          <mxGeometry x="-3434" y="190" width="103" height="181" as="geometry" />
        </mxCell>
        <mxCell id="czj0lWYuDd8mKOrDeeGV-4" value="&lt;b&gt;&lt;font style=&quot;font-size: 11px;&quot;&gt;Person&lt;/font&gt;&lt;/b&gt;" style="rounded=0;whiteSpace=wrap;html=1;fillColor=#b1ddf0;strokeColor=#000000;" parent="1" vertex="1">
          <mxGeometry x="-3434" y="168" width="103" height="22" as="geometry" />
        </mxCell>
        <mxCell id="czj0lWYuDd8mKOrDeeGV-79" value="" style="sketch=0;aspect=fixed;pointerEvents=1;shadow=0;dashed=0;html=1;strokeColor=default;labelPosition=center;verticalLabelPosition=bottom;verticalAlign=top;align=center;fillColor=#FFD966;shape=mxgraph.mscae.enterprise.key_permissions;strokeWidth=0.3;connectable=1;allowArrows=1;" parent="1" vertex="1">
          <mxGeometry x="-3442.24" y="314.00000000000006" width="6.24" height="12" as="geometry" />
        </mxCell>
        <mxCell id="czj0lWYuDd8mKOrDeeGV-83" value="" style="sketch=0;aspect=fixed;pointerEvents=1;shadow=0;dashed=0;html=1;strokeColor=default;labelPosition=center;verticalLabelPosition=bottom;verticalAlign=top;align=center;fillColor=#FFD966;shape=mxgraph.mscae.enterprise.key_permissions;strokeWidth=0.3;connectable=1;allowArrows=1;" parent="1" vertex="1">
          <mxGeometry x="-3342" y="422" width="6.24" height="12" as="geometry" />
        </mxCell>
        <mxCell id="czj0lWYuDd8mKOrDeeGV-125" value="" style="sketch=0;aspect=fixed;pointerEvents=1;shadow=0;dashed=0;html=1;strokeColor=default;labelPosition=center;verticalLabelPosition=bottom;verticalAlign=top;align=center;fillColor=#CC5050;shape=mxgraph.mscae.enterprise.key_permissions;strokeWidth=0.3;connectable=1;allowArrows=0;" parent="1" vertex="1">
          <mxGeometry x="-3342" y="192" width="6.24" height="12" as="geometry" />
        </mxCell>
        <mxCell id="czj0lWYuDd8mKOrDeeGV-142" value="" style="sketch=0;aspect=fixed;pointerEvents=1;shadow=0;dashed=0;html=1;strokeColor=default;labelPosition=center;verticalLabelPosition=bottom;verticalAlign=top;align=center;fillColor=#FFD966;shape=mxgraph.mscae.enterprise.key_permissions;strokeWidth=0.3;connectable=1;allowArrows=1;" parent="1" vertex="1">
          <mxGeometry x="-3342" y="326" width="6.24" height="12" as="geometry" />
        </mxCell>
        <mxCell id="czj0lWYuDd8mKOrDeeGV-143" value="" style="sketch=0;aspect=fixed;pointerEvents=1;shadow=0;dashed=0;html=1;strokeColor=default;labelPosition=center;verticalLabelPosition=bottom;verticalAlign=top;align=center;fillColor=#FFD966;shape=mxgraph.mscae.enterprise.key_permissions;strokeWidth=0.3;connectable=1;allowArrows=1;" parent="1" vertex="1">
          <mxGeometry x="-3342" y="435" width="6.24" height="12" as="geometry" />
        </mxCell>
        <mxCell id="czj0lWYuDd8mKOrDeeGV-183" style="rounded=0;orthogonalLoop=1;jettySize=auto;html=1;endArrow=ERmany;endFill=0;entryX=0.28;entryY=0.5;entryDx=0;entryDy=0;entryPerimeter=0;exitX=0.64;exitY=0.5;exitDx=0;exitDy=0;exitPerimeter=0;elbow=vertical;endSize=10;startSize=10;strokeWidth=0.5;" parent="1" source="czj0lWYuDd8mKOrDeeGV-159" target="czj0lWYuDd8mKOrDeeGV-79" edge="1">
          <mxGeometry relative="1" as="geometry">
            <mxPoint x="-3523.7564" y="62.889999999999965" as="sourcePoint" />
            <mxPoint x="-3444.0028" y="314.85000000000025" as="targetPoint" />
          </mxGeometry>
        </mxCell>
        <mxCell id="czj0lWYuDd8mKOrDeeGV-187" value="" style="group" parent="1" vertex="1" connectable="0">
          <mxGeometry x="-3624" y="58.779999999999994" width="113" height="67.96000000000001" as="geometry" />
        </mxCell>
        <mxCell id="czj0lWYuDd8mKOrDeeGV-126" value="&lt;span style=&quot;text-wrap: nowrap; font-size: 11px;&quot;&gt;&lt;b style=&quot;&quot;&gt;&lt;font style=&quot;font-size: 11px;&quot;&gt;city_name&lt;/font&gt;&lt;/b&gt;&lt;/span&gt;&lt;div style=&quot;font-size: 11px;&quot;&gt;&lt;b&gt;&lt;font style=&quot;font-size: 11px;&quot;&gt;district_name&lt;/font&gt;&lt;/b&gt;&lt;/div&gt;&lt;div style=&quot;font-size: 11px;&quot;&gt;&lt;b&gt;&lt;font style=&quot;font-size: 11px;&quot;&gt;country_id&lt;/font&gt;&lt;/b&gt;&lt;br&gt;&lt;/div&gt;" style="rounded=0;whiteSpace=wrap;html=1;align=left;spacingBottom=0;spacingRight=0;" parent="czj0lWYuDd8mKOrDeeGV-187" vertex="1">
          <mxGeometry y="22.000000000000007" width="113" height="45.96" as="geometry" />
        </mxCell>
        <mxCell id="czj0lWYuDd8mKOrDeeGV-128" value="" style="sketch=0;aspect=fixed;pointerEvents=1;shadow=0;dashed=0;html=1;strokeColor=default;labelPosition=center;verticalLabelPosition=bottom;verticalAlign=top;align=center;fillColor=#FFD966;shape=mxgraph.mscae.enterprise.key_permissions;strokeWidth=0.3;connectable=1;allowArrows=1;" parent="czj0lWYuDd8mKOrDeeGV-187" vertex="1">
          <mxGeometry x="101" y="38.78000000000006" width="6.24" height="12" as="geometry" />
        </mxCell>
        <mxCell id="czj0lWYuDd8mKOrDeeGV-127" value="&lt;b&gt;&lt;font style=&quot;font-size: 11px;&quot;&gt;City&lt;/font&gt;&lt;/b&gt;" style="rounded=0;whiteSpace=wrap;html=1;fillColor=#b1ddf0;strokeColor=#000000;" parent="czj0lWYuDd8mKOrDeeGV-187" vertex="1">
          <mxGeometry width="113" height="22" as="geometry" />
        </mxCell>
        <mxCell id="czj0lWYuDd8mKOrDeeGV-133" value="" style="sketch=0;aspect=fixed;pointerEvents=1;shadow=0;dashed=0;html=1;strokeColor=default;labelPosition=center;verticalLabelPosition=bottom;verticalAlign=top;align=center;fillColor=#CC5050;shape=mxgraph.mscae.enterprise.key_permissions;strokeWidth=0.3;connectable=1;allowArrows=0;" parent="czj0lWYuDd8mKOrDeeGV-187" vertex="1">
          <mxGeometry x="91" y="23.78" width="6.24" height="12" as="geometry" />
        </mxCell>
        <mxCell id="czj0lWYuDd8mKOrDeeGV-144" value="" style="sketch=0;aspect=fixed;pointerEvents=1;shadow=0;dashed=0;html=1;strokeColor=default;labelPosition=center;verticalLabelPosition=bottom;verticalAlign=top;align=center;fillColor=#CC5050;shape=mxgraph.mscae.enterprise.key_permissions;strokeWidth=0.3;connectable=1;allowArrows=0;" parent="czj0lWYuDd8mKOrDeeGV-187" vertex="1">
          <mxGeometry x="91" y="38.78" width="6.24" height="12" as="geometry" />
        </mxCell>
        <mxCell id="czj0lWYuDd8mKOrDeeGV-145" value="" style="sketch=0;aspect=fixed;pointerEvents=1;shadow=0;dashed=0;html=1;strokeColor=default;labelPosition=center;verticalLabelPosition=bottom;verticalAlign=top;align=center;fillColor=#CC5050;shape=mxgraph.mscae.enterprise.key_permissions;strokeWidth=0.3;connectable=1;allowArrows=0;" parent="czj0lWYuDd8mKOrDeeGV-187" vertex="1">
          <mxGeometry x="91" y="53.78" width="6.24" height="12" as="geometry" />
        </mxCell>
        <mxCell id="czj0lWYuDd8mKOrDeeGV-146" value="" style="sketch=0;aspect=fixed;pointerEvents=1;shadow=0;dashed=0;html=1;strokeColor=default;labelPosition=center;verticalLabelPosition=bottom;verticalAlign=top;align=center;fillColor=#FFD966;shape=mxgraph.mscae.enterprise.key_permissions;strokeWidth=0.3;connectable=1;allowArrows=1;" parent="czj0lWYuDd8mKOrDeeGV-187" vertex="1">
          <mxGeometry x="101" y="23.780000000000058" width="6.24" height="12" as="geometry" />
        </mxCell>
        <mxCell id="czj0lWYuDd8mKOrDeeGV-147" value="" style="sketch=0;aspect=fixed;pointerEvents=1;shadow=0;dashed=0;html=1;strokeColor=default;labelPosition=center;verticalLabelPosition=bottom;verticalAlign=top;align=center;fillColor=#FFD966;shape=mxgraph.mscae.enterprise.key_permissions;strokeWidth=0.3;connectable=1;allowArrows=1;" parent="czj0lWYuDd8mKOrDeeGV-187" vertex="1">
          <mxGeometry x="101" y="53.78000000000006" width="6.24" height="12" as="geometry" />
        </mxCell>
        <mxCell id="czj0lWYuDd8mKOrDeeGV-188" style="rounded=0;orthogonalLoop=1;jettySize=auto;html=1;endArrow=ERmany;endFill=0;entryX=0.5;entryY=1;entryDx=0;entryDy=0;entryPerimeter=0;exitX=0.5;exitY=0;exitDx=0;exitDy=0;exitPerimeter=0;elbow=vertical;endSize=10;startSize=10;strokeWidth=0.5;" parent="1" source="czj0lWYuDd8mKOrDeeGV-159" target="czj0lWYuDd8mKOrDeeGV-168" edge="1">
          <mxGeometry relative="1" as="geometry">
            <mxPoint x="-3613.99" y="253.24" as="sourcePoint" />
            <mxPoint x="-3540.9928" y="252.09000000000026" as="targetPoint" />
          </mxGeometry>
        </mxCell>
        <mxCell id="czj0lWYuDd8mKOrDeeGV-189" style="rounded=0;orthogonalLoop=1;jettySize=auto;html=1;endArrow=ERmany;endFill=0;entryX=0.5;entryY=1;entryDx=0;entryDy=0;entryPerimeter=0;exitX=0.5;exitY=0;exitDx=0;exitDy=0;exitPerimeter=0;elbow=vertical;endSize=10;startSize=10;strokeWidth=0.5;" parent="1" source="czj0lWYuDd8mKOrDeeGV-166" target="czj0lWYuDd8mKOrDeeGV-147" edge="1">
          <mxGeometry relative="1" as="geometry">
            <mxPoint x="-3497.12" y="176.06" as="sourcePoint" />
            <mxPoint x="-3497.12" y="92.06" as="targetPoint" />
          </mxGeometry>
        </mxCell>
        <mxCell id="czj0lWYuDd8mKOrDeeGV-196" value="&lt;b&gt;&lt;font style=&quot;font-size: 11px;&quot;&gt;Follow&lt;/font&gt;&lt;/b&gt;" style="rounded=0;whiteSpace=wrap;html=1;fillColor=#b1ddf0;strokeColor=#000000;" parent="1" vertex="1">
          <mxGeometry x="-3436" y="398" width="103" height="22" as="geometry" />
        </mxCell>
        <mxCell id="czj0lWYuDd8mKOrDeeGV-197" value="" style="sketch=0;aspect=fixed;pointerEvents=1;shadow=0;dashed=0;html=1;strokeColor=default;labelPosition=center;verticalLabelPosition=bottom;verticalAlign=top;align=center;fillColor=#CC5050;shape=mxgraph.mscae.enterprise.key_permissions;strokeWidth=0.3;connectable=1;allowArrows=0;" parent="1" vertex="1">
          <mxGeometry x="-3352" y="422" width="6.24" height="12" as="geometry" />
        </mxCell>
        <mxCell id="czj0lWYuDd8mKOrDeeGV-198" value="" style="sketch=0;aspect=fixed;pointerEvents=1;shadow=0;dashed=0;html=1;strokeColor=default;labelPosition=center;verticalLabelPosition=bottom;verticalAlign=top;align=center;fillColor=#CC5050;shape=mxgraph.mscae.enterprise.key_permissions;strokeWidth=0.3;connectable=1;allowArrows=0;" parent="1" vertex="1">
          <mxGeometry x="-3352" y="435" width="6.24" height="12" as="geometry" />
        </mxCell>
        <mxCell id="czj0lWYuDd8mKOrDeeGV-199" value="" style="sketch=0;aspect=fixed;pointerEvents=1;shadow=0;dashed=0;html=1;strokeColor=default;labelPosition=center;verticalLabelPosition=bottom;verticalAlign=top;align=center;fillColor=#FFD966;shape=mxgraph.mscae.enterprise.key_permissions;strokeWidth=0.3;connectable=1;allowArrows=1;" parent="1" vertex="1">
          <mxGeometry x="-3342" y="340" width="6.24" height="12" as="geometry" />
        </mxCell>
        <mxCell id="czj0lWYuDd8mKOrDeeGV-200" value="" style="sketch=0;aspect=fixed;pointerEvents=1;shadow=0;dashed=0;html=1;strokeColor=default;labelPosition=center;verticalLabelPosition=bottom;verticalAlign=top;align=center;fillColor=#FFD966;shape=mxgraph.mscae.enterprise.key_permissions;strokeWidth=0.3;connectable=1;allowArrows=1;" parent="1" vertex="1">
          <mxGeometry x="-3342" y="355" width="6.24" height="12" as="geometry" />
        </mxCell>
      </root>
    </mxGraphModel>
  </diagram>
</mxfile>
